%TF.GenerationSoftware,KiCad,Pcbnew,(5.1.6)-1*%
%TF.CreationDate,2021-04-06T11:23:55-04:00*%
%TF.ProjectId,Lithgow_DetailDesign,4c697468-676f-4775-9f44-657461696c44,2.1*%
%TF.SameCoordinates,Original*%
%TF.FileFunction,Copper,L2,Bot*%
%TF.FilePolarity,Positive*%
%FSLAX46Y46*%
G04 Gerber Fmt 4.6, Leading zero omitted, Abs format (unit mm)*
G04 Created by KiCad (PCBNEW (5.1.6)-1) date 2021-04-06 11:23:55*
%MOMM*%
%LPD*%
G01*
G04 APERTURE LIST*
%TA.AperFunction,ComponentPad*%
%ADD10R,1.700000X1.700000*%
%TD*%
%TA.AperFunction,ComponentPad*%
%ADD11O,1.700000X1.700000*%
%TD*%
%TA.AperFunction,ComponentPad*%
%ADD12R,1.250000X4.000000*%
%TD*%
%TA.AperFunction,ComponentPad*%
%ADD13R,4.000000X1.250000*%
%TD*%
%TA.AperFunction,ComponentPad*%
%ADD14C,2.540000*%
%TD*%
%TA.AperFunction,ComponentPad*%
%ADD15O,1.193800X1.701800*%
%TD*%
%TA.AperFunction,ViaPad*%
%ADD16C,0.800000*%
%TD*%
%TA.AperFunction,Conductor*%
%ADD17C,0.250000*%
%TD*%
%TA.AperFunction,Conductor*%
%ADD18C,0.254000*%
%TD*%
G04 APERTURE END LIST*
D10*
%TO.P,J6,1*%
%TO.N,Net-(F3-Pad1)*%
X180340000Y-77470000D03*
D11*
%TO.P,J6,2*%
%TO.N,+3V3*%
X180340000Y-80010000D03*
%TO.P,J6,3*%
%TO.N,GND*%
X180340000Y-82550000D03*
%TO.P,J6,4*%
%TO.N,+3V3*%
X180340000Y-85090000D03*
%TO.P,J6,5*%
%TO.N,/BIN2B*%
X180340000Y-87630000D03*
%TO.P,J6,6*%
%TO.N,/BIN1B*%
X180340000Y-90170000D03*
%TO.P,J6,7*%
%TO.N,N/C*%
X180340000Y-92710000D03*
%TO.P,J6,8*%
%TO.N,/AIN1B*%
X180340000Y-95250000D03*
%TO.P,J6,9*%
%TO.N,/AIN2B*%
X180340000Y-97790000D03*
%TO.P,J6,10*%
%TO.N,+3V3*%
X180340000Y-100330000D03*
%TD*%
D12*
%TO.P,J1,3*%
%TO.N,N/C*%
X164566000Y-122174000D03*
D13*
%TO.P,J1,2*%
%TO.N,GND*%
X159766000Y-125424000D03*
%TO.P,J1,1*%
%TO.N,+12V*%
X159766000Y-119174000D03*
%TD*%
D10*
%TO.P,J2,1*%
%TO.N,+12V*%
X159258000Y-115316000D03*
D11*
%TO.P,J2,2*%
%TO.N,Net-(J2-Pad2)*%
X156718000Y-115316000D03*
%TD*%
%TO.P,J3,40*%
%TO.N,N/C*%
X134620000Y-124460000D03*
%TO.P,J3,39*%
%TO.N,GND*%
X132080000Y-124460000D03*
%TO.P,J3,38*%
%TO.N,N/C*%
X134620000Y-121920000D03*
%TO.P,J3,37*%
%TO.N,/AIN2C*%
X132080000Y-121920000D03*
%TO.P,J3,36*%
%TO.N,N/C*%
X134620000Y-119380000D03*
%TO.P,J3,35*%
%TO.N,/AIN1C*%
X132080000Y-119380000D03*
%TO.P,J3,34*%
%TO.N,GND*%
X134620000Y-116840000D03*
%TO.P,J3,33*%
%TO.N,Net-(J3-Pad33)*%
X132080000Y-116840000D03*
%TO.P,J3,32*%
%TO.N,N/C*%
X134620000Y-114300000D03*
%TO.P,J3,31*%
%TO.N,/BIN1C*%
X132080000Y-114300000D03*
%TO.P,J3,30*%
%TO.N,GND*%
X134620000Y-111760000D03*
%TO.P,J3,29*%
%TO.N,/AIN2B*%
X132080000Y-111760000D03*
%TO.P,J3,28*%
%TO.N,N/C*%
X134620000Y-109220000D03*
%TO.P,J3,27*%
X132080000Y-109220000D03*
%TO.P,J3,26*%
X134620000Y-106680000D03*
%TO.P,J3,25*%
%TO.N,GND*%
X132080000Y-106680000D03*
%TO.P,J3,24*%
%TO.N,N/C*%
X134620000Y-104140000D03*
%TO.P,J3,23*%
%TO.N,/AIN1B*%
X132080000Y-104140000D03*
%TO.P,J3,22*%
%TO.N,Net-(J24-Pad2)*%
X134620000Y-101600000D03*
%TO.P,J3,21*%
%TO.N,/BIN1B*%
X132080000Y-101600000D03*
%TO.P,J3,20*%
%TO.N,GND*%
X134620000Y-99060000D03*
%TO.P,J3,19*%
%TO.N,/BIN2B*%
X132080000Y-99060000D03*
%TO.P,J3,18*%
%TO.N,Net-(J23-Pad2)*%
X134620000Y-96520000D03*
%TO.P,J3,17*%
%TO.N,N/C*%
X132080000Y-96520000D03*
%TO.P,J3,16*%
%TO.N,Net-(J22-Pad2)*%
X134620000Y-93980000D03*
%TO.P,J3,15*%
%TO.N,/BIN2A*%
X132080000Y-93980000D03*
%TO.P,J3,14*%
%TO.N,GND*%
X134620000Y-91440000D03*
%TO.P,J3,13*%
%TO.N,/BIN1A*%
X132080000Y-91440000D03*
%TO.P,J3,12*%
%TO.N,/BIN2C*%
X134620000Y-88900000D03*
%TO.P,J3,11*%
%TO.N,/AIN2A*%
X132080000Y-88900000D03*
%TO.P,J3,10*%
%TO.N,N/C*%
X134620000Y-86360000D03*
%TO.P,J3,9*%
%TO.N,GND*%
X132080000Y-86360000D03*
%TO.P,J3,8*%
%TO.N,N/C*%
X134620000Y-83820000D03*
%TO.P,J3,7*%
%TO.N,/AIN1A*%
X132080000Y-83820000D03*
%TO.P,J3,6*%
%TO.N,GND*%
X134620000Y-81280000D03*
%TO.P,J3,5*%
%TO.N,N/C*%
X132080000Y-81280000D03*
%TO.P,J3,4*%
%TO.N,+5V*%
X134620000Y-78740000D03*
%TO.P,J3,3*%
%TO.N,N/C*%
X132080000Y-78740000D03*
%TO.P,J3,2*%
%TO.N,+5V*%
X134620000Y-76200000D03*
D10*
%TO.P,J3,1*%
%TO.N,+3V3*%
X132080000Y-76200000D03*
%TD*%
D11*
%TO.P,J4,10*%
%TO.N,+3V3*%
X145288000Y-99314000D03*
%TO.P,J4,9*%
%TO.N,/BIN2A*%
X145288000Y-96774000D03*
%TO.P,J4,8*%
%TO.N,/BIN1A*%
X145288000Y-94234000D03*
%TO.P,J4,7*%
%TO.N,N/C*%
X145288000Y-91694000D03*
%TO.P,J4,6*%
%TO.N,/AIN2A*%
X145288000Y-89154000D03*
%TO.P,J4,5*%
%TO.N,/AIN1A*%
X145288000Y-86614000D03*
%TO.P,J4,4*%
%TO.N,+3V3*%
X145288000Y-84074000D03*
%TO.P,J4,3*%
%TO.N,GND*%
X145288000Y-81534000D03*
%TO.P,J4,2*%
%TO.N,+3V3*%
X145288000Y-78994000D03*
D10*
%TO.P,J4,1*%
%TO.N,Net-(F2-Pad1)*%
X145288000Y-76454000D03*
%TD*%
%TO.P,J5,1*%
%TO.N,Net-(J13-Pad1)*%
X160528000Y-81534000D03*
D11*
%TO.P,J5,2*%
%TO.N,Net-(J12-Pad1)*%
X160528000Y-84074000D03*
%TO.P,J5,3*%
%TO.N,GND*%
X160528000Y-86614000D03*
%TO.P,J5,4*%
X160528000Y-89154000D03*
%TO.P,J5,5*%
%TO.N,Net-(J11-Pad1)*%
X160528000Y-91694000D03*
%TO.P,J5,6*%
%TO.N,Net-(J10-Pad1)*%
X160528000Y-94234000D03*
%TD*%
%TO.P,J7,6*%
%TO.N,Net-(J14-Pad1)*%
X195580000Y-95250000D03*
%TO.P,J7,5*%
%TO.N,Net-(J15-Pad1)*%
X195580000Y-92710000D03*
%TO.P,J7,4*%
%TO.N,GND*%
X195580000Y-90170000D03*
%TO.P,J7,3*%
X195580000Y-87630000D03*
%TO.P,J7,2*%
%TO.N,Net-(J16-Pad1)*%
X195580000Y-85090000D03*
D10*
%TO.P,J7,1*%
%TO.N,Net-(J17-Pad1)*%
X195580000Y-82550000D03*
%TD*%
D11*
%TO.P,J8,10*%
%TO.N,+3V3*%
X169926000Y-124968000D03*
%TO.P,J8,9*%
%TO.N,/AIN2C*%
X169926000Y-122428000D03*
%TO.P,J8,8*%
%TO.N,/AIN1C*%
X169926000Y-119888000D03*
%TO.P,J8,7*%
%TO.N,N/C*%
X169926000Y-117348000D03*
%TO.P,J8,6*%
%TO.N,/BIN1C*%
X169926000Y-114808000D03*
%TO.P,J8,5*%
%TO.N,/BIN2C*%
X169926000Y-112268000D03*
%TO.P,J8,4*%
%TO.N,+3V3*%
X169926000Y-109728000D03*
%TO.P,J8,3*%
%TO.N,GND*%
X169926000Y-107188000D03*
%TO.P,J8,2*%
%TO.N,+3V3*%
X169926000Y-104648000D03*
D10*
%TO.P,J8,1*%
%TO.N,Net-(F4-Pad1)*%
X169926000Y-102108000D03*
%TD*%
%TO.P,J9,1*%
%TO.N,Net-(J21-Pad1)*%
X185166000Y-107188000D03*
D11*
%TO.P,J9,2*%
%TO.N,Net-(J20-Pad1)*%
X185166000Y-109728000D03*
%TO.P,J9,3*%
%TO.N,GND*%
X185166000Y-112268000D03*
%TO.P,J9,4*%
X185166000Y-114808000D03*
%TO.P,J9,5*%
%TO.N,Net-(J19-Pad1)*%
X185166000Y-117348000D03*
%TO.P,J9,6*%
%TO.N,Net-(J18-Pad1)*%
X185166000Y-119888000D03*
%TD*%
D14*
%TO.P,J10,1*%
%TO.N,Net-(J10-Pad1)*%
X166878000Y-94234000D03*
%TO.P,J10,2*%
%TO.N,N/C*%
X171958000Y-94234000D03*
%TD*%
%TO.P,J11,2*%
%TO.N,N/C*%
X171958000Y-88392000D03*
%TO.P,J11,1*%
%TO.N,Net-(J11-Pad1)*%
X166878000Y-88392000D03*
%TD*%
%TO.P,J12,2*%
%TO.N,N/C*%
X171958000Y-82550000D03*
%TO.P,J12,1*%
%TO.N,Net-(J12-Pad1)*%
X166878000Y-82550000D03*
%TD*%
%TO.P,J13,1*%
%TO.N,Net-(J13-Pad1)*%
X166878000Y-76454000D03*
%TO.P,J13,2*%
%TO.N,N/C*%
X171958000Y-76454000D03*
%TD*%
%TO.P,J14,1*%
%TO.N,Net-(J14-Pad1)*%
X202184000Y-98298000D03*
%TO.P,J14,2*%
%TO.N,N/C*%
X207264000Y-98298000D03*
%TD*%
%TO.P,J15,2*%
%TO.N,N/C*%
X207264000Y-91948000D03*
%TO.P,J15,1*%
%TO.N,Net-(J15-Pad1)*%
X202184000Y-91948000D03*
%TD*%
%TO.P,J16,1*%
%TO.N,Net-(J16-Pad1)*%
X202184000Y-85598000D03*
%TO.P,J16,2*%
%TO.N,N/C*%
X207264000Y-85598000D03*
%TD*%
%TO.P,J17,2*%
%TO.N,N/C*%
X207264000Y-79248000D03*
%TO.P,J17,1*%
%TO.N,Net-(J17-Pad1)*%
X202184000Y-79248000D03*
%TD*%
%TO.P,J18,1*%
%TO.N,Net-(J18-Pad1)*%
X202628000Y-117602000D03*
%TO.P,J18,2*%
%TO.N,N/C*%
X207708000Y-117602000D03*
%TD*%
%TO.P,J19,2*%
%TO.N,N/C*%
X196342000Y-117602000D03*
%TO.P,J19,1*%
%TO.N,Net-(J19-Pad1)*%
X191262000Y-117602000D03*
%TD*%
%TO.P,J20,1*%
%TO.N,Net-(J20-Pad1)*%
X202692000Y-109982000D03*
%TO.P,J20,2*%
%TO.N,N/C*%
X207772000Y-109982000D03*
%TD*%
%TO.P,J21,2*%
%TO.N,N/C*%
X196278000Y-109982000D03*
%TO.P,J21,1*%
%TO.N,Net-(J21-Pad1)*%
X191198000Y-109982000D03*
%TD*%
D11*
%TO.P,J22,2*%
%TO.N,Net-(J22-Pad2)*%
X138311001Y-86360000D03*
D10*
%TO.P,J22,1*%
%TO.N,GND*%
X138311001Y-83820000D03*
%TD*%
D11*
%TO.P,J23,2*%
%TO.N,Net-(J23-Pad2)*%
X138582400Y-95351600D03*
D10*
%TO.P,J23,1*%
%TO.N,GND*%
X138582400Y-92811600D03*
%TD*%
%TO.P,J24,1*%
%TO.N,GND*%
X138430000Y-99060000D03*
D11*
%TO.P,J24,2*%
%TO.N,Net-(J24-Pad2)*%
X138430000Y-101600000D03*
%TD*%
D15*
%TO.P,U1,5*%
%TO.N,Net-(R2-Pad1)*%
X148793200Y-117094000D03*
%TO.P,U1,4*%
%TO.N,+5V*%
X147091400Y-117094000D03*
%TO.P,U1,3*%
%TO.N,GND*%
X145389600Y-117094000D03*
%TO.P,U1,2*%
%TO.N,/+12V(1)*%
X143687800Y-117094000D03*
%TO.P,U1,1*%
%TO.N,Net-(R1-Pad1)*%
X141986000Y-117094000D03*
%TD*%
D16*
%TO.N,GND*%
X172466000Y-107188000D03*
X183134000Y-82550000D03*
X157226000Y-76708000D03*
X157226000Y-79502000D03*
X137414000Y-79756000D03*
X138176000Y-123698000D03*
X154178000Y-110490000D03*
X163322000Y-112522000D03*
X163322000Y-116840000D03*
X159766000Y-122936000D03*
X149098000Y-122428000D03*
%TO.N,+12V*%
X166878000Y-106426000D03*
%TO.N,+3V3*%
X145237200Y-101214001D03*
%TO.N,/BIN2C*%
X156718000Y-101309000D03*
X147574000Y-90678000D03*
X140211002Y-89154000D03*
%TO.N,/AIN1B*%
X161036000Y-99568000D03*
%TO.N,/AIN2B*%
X162052000Y-100584000D03*
%TO.N,/BIN1B*%
X160274000Y-98806000D03*
%TO.N,/BIN2B*%
X159512000Y-98044000D03*
%TO.N,/BIN1C*%
X166002847Y-113895847D03*
%TD*%
D17*
%TO.N,GND*%
X195580000Y-87630000D02*
X186182000Y-87630000D01*
X195580000Y-90170000D02*
X186182000Y-90170000D01*
X195580000Y-87630000D02*
X195580000Y-90170000D01*
X133255001Y-110395001D02*
X134620000Y-111760000D01*
X133255001Y-107855001D02*
X133255001Y-110395001D01*
X132080000Y-106680000D02*
X133255001Y-107855001D01*
X138311001Y-83231999D02*
X138311001Y-83820000D01*
%TO.N,+12V*%
X166878000Y-114046000D02*
X166878000Y-106426000D01*
X159258000Y-115316000D02*
X165608000Y-115316000D01*
X165608000Y-115316000D02*
X166878000Y-114046000D01*
%TO.N,+3V3*%
X146463001Y-80169001D02*
X145288000Y-78994000D01*
X146463001Y-82898999D02*
X146463001Y-80169001D01*
X145288000Y-84074000D02*
X146463001Y-82898999D01*
X146463001Y-98138999D02*
X145288000Y-99314000D01*
X146463001Y-85249001D02*
X146463001Y-98138999D01*
X145288000Y-84074000D02*
X146463001Y-85249001D01*
X146463001Y-98138999D02*
X146463001Y-98203001D01*
X152908000Y-104648000D02*
X169926000Y-104648000D01*
X146463001Y-98203001D02*
X152908000Y-104648000D01*
X171101001Y-108552999D02*
X169926000Y-109728000D01*
X171101001Y-105823001D02*
X171101001Y-108552999D01*
X169926000Y-104648000D02*
X171101001Y-105823001D01*
X171101001Y-110903001D02*
X169926000Y-109728000D01*
X171101001Y-123792999D02*
X171101001Y-110903001D01*
X169926000Y-124968000D02*
X171101001Y-123792999D01*
X145288000Y-78994000D02*
X146812000Y-78994000D01*
X146812000Y-78994000D02*
X147828000Y-77978000D01*
X147899001Y-78049001D02*
X176855001Y-78049001D01*
X147828000Y-77978000D02*
X147899001Y-78049001D01*
X178816000Y-80010000D02*
X180340000Y-80010000D01*
X176855001Y-78049001D02*
X178816000Y-80010000D01*
X181515001Y-83914999D02*
X180340000Y-85090000D01*
X181515001Y-81185001D02*
X181515001Y-83914999D01*
X180340000Y-80010000D02*
X181515001Y-81185001D01*
X181515001Y-99154999D02*
X180340000Y-100330000D01*
X181515001Y-86265001D02*
X181515001Y-99154999D01*
X180340000Y-85090000D02*
X181515001Y-86265001D01*
X180340000Y-100330000D02*
X176022000Y-104648000D01*
X176022000Y-104648000D02*
X169926000Y-104648000D01*
X145237200Y-99364800D02*
X145288000Y-99314000D01*
X145237200Y-101214001D02*
X145237200Y-99364800D01*
%TO.N,/AIN1A*%
X132080000Y-83820000D02*
X133444999Y-85184999D01*
X143858999Y-85184999D02*
X145288000Y-86614000D01*
X133444999Y-85184999D02*
X143858999Y-85184999D01*
%TO.N,/AIN2A*%
X132080000Y-88900000D02*
X133255001Y-87724999D01*
X143858999Y-87724999D02*
X145288000Y-89154000D01*
X133255001Y-87724999D02*
X143858999Y-87724999D01*
%TO.N,/BIN2C*%
X156718000Y-101309000D02*
X156718000Y-99822000D01*
X156718000Y-99822000D02*
X147574000Y-90678000D01*
X134874000Y-89154000D02*
X134620000Y-88900000D01*
X140211002Y-89154000D02*
X134874000Y-89154000D01*
%TO.N,/BIN1A*%
X145230599Y-94176599D02*
X145288000Y-94234000D01*
X137762999Y-94176599D02*
X145230599Y-94176599D01*
X136391399Y-92804999D02*
X137762999Y-94176599D01*
X133444999Y-92804999D02*
X136391399Y-92804999D01*
X132080000Y-91440000D02*
X133444999Y-92804999D01*
%TO.N,/BIN2A*%
X132080000Y-93980000D02*
X133444999Y-95344999D01*
X136613002Y-96774000D02*
X145288000Y-96774000D01*
X135184001Y-95344999D02*
X136613002Y-96774000D01*
X133444999Y-95344999D02*
X135184001Y-95344999D01*
%TO.N,/AIN1B*%
X161036000Y-99568000D02*
X164084000Y-96520000D01*
X179070000Y-96520000D02*
X180340000Y-95250000D01*
X164084000Y-96520000D02*
X179070000Y-96520000D01*
%TO.N,/AIN2B*%
X179520010Y-96970010D02*
X180340000Y-97790000D01*
X162052000Y-100584000D02*
X165665990Y-96970010D01*
X165665990Y-96970010D02*
X179520010Y-96970010D01*
%TO.N,/BIN1B*%
X168344315Y-90170000D02*
X180340000Y-90170000D01*
X160274000Y-98240315D02*
X160274000Y-98806000D01*
X168344315Y-90170000D02*
X160274000Y-98240315D01*
%TO.N,/BIN2B*%
X179506999Y-86796999D02*
X180340000Y-87630000D01*
X170759001Y-86796999D02*
X179506999Y-86796999D01*
X159512000Y-98044000D02*
X170759001Y-86796999D01*
%TO.N,/AIN1C*%
X168261999Y-118223999D02*
X169926000Y-119888000D01*
X157886997Y-118223999D02*
X168261999Y-118223999D01*
X155581088Y-115918090D02*
X157886997Y-118223999D01*
X141604133Y-115918090D02*
X155581088Y-115918090D01*
X139507222Y-118015001D02*
X141604133Y-115918090D01*
X133444999Y-118015001D02*
X139507222Y-118015001D01*
X132080000Y-119380000D02*
X133444999Y-118015001D01*
%TO.N,/AIN2C*%
X133255001Y-120744999D02*
X152813001Y-120744999D01*
X132080000Y-121920000D02*
X133255001Y-120744999D01*
X152813001Y-120744999D02*
X156528002Y-124460000D01*
X167854999Y-124499001D02*
X169926000Y-122428000D01*
X163641998Y-124460000D02*
X163680999Y-124499001D01*
X163680999Y-124499001D02*
X167854999Y-124499001D01*
X156528002Y-124460000D02*
X163641998Y-124460000D01*
%TO.N,/BIN1C*%
X133444999Y-112935001D02*
X153575001Y-112935001D01*
X132080000Y-114300000D02*
X133444999Y-112935001D01*
X153575001Y-112935001D02*
X154535847Y-113895847D01*
X154535847Y-113895847D02*
X166002847Y-113895847D01*
%TD*%
D18*
%TO.N,GND*%
G36*
X187478274Y-126442400D02*
G01*
X170125549Y-126442400D01*
X170359158Y-126395932D01*
X170629411Y-126283990D01*
X170872632Y-126121475D01*
X171079475Y-125914632D01*
X171241990Y-125671411D01*
X171353932Y-125401158D01*
X171411000Y-125114260D01*
X171411000Y-124821740D01*
X171367210Y-124601592D01*
X171612005Y-124356797D01*
X171641002Y-124333000D01*
X171735975Y-124217275D01*
X171806547Y-124085246D01*
X171850004Y-123941985D01*
X171861001Y-123830332D01*
X171861001Y-123830323D01*
X171864677Y-123793000D01*
X171861001Y-123755677D01*
X171861001Y-117201740D01*
X183681000Y-117201740D01*
X183681000Y-117494260D01*
X183738068Y-117781158D01*
X183850010Y-118051411D01*
X184012525Y-118294632D01*
X184219368Y-118501475D01*
X184393760Y-118618000D01*
X184219368Y-118734525D01*
X184012525Y-118941368D01*
X183850010Y-119184589D01*
X183738068Y-119454842D01*
X183681000Y-119741740D01*
X183681000Y-120034260D01*
X183738068Y-120321158D01*
X183850010Y-120591411D01*
X184012525Y-120834632D01*
X184219368Y-121041475D01*
X184462589Y-121203990D01*
X184732842Y-121315932D01*
X185019740Y-121373000D01*
X185312260Y-121373000D01*
X185599158Y-121315932D01*
X185869411Y-121203990D01*
X186112632Y-121041475D01*
X186319475Y-120834632D01*
X186481990Y-120591411D01*
X186593932Y-120321158D01*
X186651000Y-120034260D01*
X186651000Y-119741740D01*
X186593932Y-119454842D01*
X186481990Y-119184589D01*
X186319475Y-118941368D01*
X186112632Y-118734525D01*
X185938240Y-118618000D01*
X186112632Y-118501475D01*
X186319475Y-118294632D01*
X186481990Y-118051411D01*
X186593932Y-117781158D01*
X186651000Y-117494260D01*
X186651000Y-117201740D01*
X186593932Y-116914842D01*
X186481990Y-116644589D01*
X186319475Y-116401368D01*
X186112632Y-116194525D01*
X185930466Y-116072805D01*
X186047355Y-116003178D01*
X186263588Y-115808269D01*
X186437641Y-115574920D01*
X186562825Y-115312099D01*
X186607476Y-115164890D01*
X186486155Y-114935000D01*
X185293000Y-114935000D01*
X185293000Y-114955000D01*
X185039000Y-114955000D01*
X185039000Y-114935000D01*
X183845845Y-114935000D01*
X183724524Y-115164890D01*
X183769175Y-115312099D01*
X183894359Y-115574920D01*
X184068412Y-115808269D01*
X184284645Y-116003178D01*
X184401534Y-116072805D01*
X184219368Y-116194525D01*
X184012525Y-116401368D01*
X183850010Y-116644589D01*
X183738068Y-116914842D01*
X183681000Y-117201740D01*
X171861001Y-117201740D01*
X171861001Y-112624890D01*
X183724524Y-112624890D01*
X183769175Y-112772099D01*
X183894359Y-113034920D01*
X184068412Y-113268269D01*
X184284645Y-113463178D01*
X184410255Y-113538000D01*
X184284645Y-113612822D01*
X184068412Y-113807731D01*
X183894359Y-114041080D01*
X183769175Y-114303901D01*
X183724524Y-114451110D01*
X183845845Y-114681000D01*
X185039000Y-114681000D01*
X185039000Y-112395000D01*
X185293000Y-112395000D01*
X185293000Y-114681000D01*
X186486155Y-114681000D01*
X186607476Y-114451110D01*
X186562825Y-114303901D01*
X186437641Y-114041080D01*
X186263588Y-113807731D01*
X186047355Y-113612822D01*
X185921745Y-113538000D01*
X186047355Y-113463178D01*
X186263588Y-113268269D01*
X186437641Y-113034920D01*
X186562825Y-112772099D01*
X186607476Y-112624890D01*
X186486155Y-112395000D01*
X185293000Y-112395000D01*
X185039000Y-112395000D01*
X183845845Y-112395000D01*
X183724524Y-112624890D01*
X171861001Y-112624890D01*
X171861001Y-110940323D01*
X171864677Y-110903000D01*
X171861001Y-110865677D01*
X171861001Y-110865668D01*
X171850004Y-110754015D01*
X171806547Y-110610754D01*
X171735975Y-110478725D01*
X171641002Y-110363000D01*
X171612004Y-110339202D01*
X171367210Y-110094408D01*
X171411000Y-109874260D01*
X171411000Y-109581740D01*
X171367210Y-109361592D01*
X171612004Y-109116798D01*
X171641002Y-109093000D01*
X171735975Y-108977275D01*
X171806547Y-108845246D01*
X171850004Y-108701985D01*
X171861001Y-108590332D01*
X171861001Y-108590323D01*
X171864677Y-108553000D01*
X171861001Y-108515677D01*
X171861001Y-106338000D01*
X183677928Y-106338000D01*
X183677928Y-108038000D01*
X183690188Y-108162482D01*
X183726498Y-108282180D01*
X183785463Y-108392494D01*
X183864815Y-108489185D01*
X183961506Y-108568537D01*
X184071820Y-108627502D01*
X184144380Y-108649513D01*
X184012525Y-108781368D01*
X183850010Y-109024589D01*
X183738068Y-109294842D01*
X183681000Y-109581740D01*
X183681000Y-109874260D01*
X183738068Y-110161158D01*
X183850010Y-110431411D01*
X184012525Y-110674632D01*
X184219368Y-110881475D01*
X184401534Y-111003195D01*
X184284645Y-111072822D01*
X184068412Y-111267731D01*
X183894359Y-111501080D01*
X183769175Y-111763901D01*
X183724524Y-111911110D01*
X183845845Y-112141000D01*
X185039000Y-112141000D01*
X185039000Y-112121000D01*
X185293000Y-112121000D01*
X185293000Y-112141000D01*
X186486155Y-112141000D01*
X186607476Y-111911110D01*
X186562825Y-111763901D01*
X186437641Y-111501080D01*
X186263588Y-111267731D01*
X186047355Y-111072822D01*
X185930466Y-111003195D01*
X186112632Y-110881475D01*
X186319475Y-110674632D01*
X186481990Y-110431411D01*
X186593932Y-110161158D01*
X186651000Y-109874260D01*
X186651000Y-109581740D01*
X186593932Y-109294842D01*
X186481990Y-109024589D01*
X186319475Y-108781368D01*
X186187620Y-108649513D01*
X186260180Y-108627502D01*
X186370494Y-108568537D01*
X186467185Y-108489185D01*
X186546537Y-108392494D01*
X186605502Y-108282180D01*
X186641812Y-108162482D01*
X186654072Y-108038000D01*
X186654072Y-106338000D01*
X186641812Y-106213518D01*
X186605502Y-106093820D01*
X186546537Y-105983506D01*
X186467185Y-105886815D01*
X186370494Y-105807463D01*
X186260180Y-105748498D01*
X186140482Y-105712188D01*
X186016000Y-105699928D01*
X184316000Y-105699928D01*
X184191518Y-105712188D01*
X184071820Y-105748498D01*
X183961506Y-105807463D01*
X183864815Y-105886815D01*
X183785463Y-105983506D01*
X183726498Y-106093820D01*
X183690188Y-106213518D01*
X183677928Y-106338000D01*
X171861001Y-106338000D01*
X171861001Y-105860323D01*
X171864677Y-105823000D01*
X171861001Y-105785677D01*
X171861001Y-105785668D01*
X171850004Y-105674015D01*
X171806547Y-105530754D01*
X171740933Y-105408000D01*
X175984678Y-105408000D01*
X176022000Y-105411676D01*
X176059322Y-105408000D01*
X176059333Y-105408000D01*
X176170986Y-105397003D01*
X176314247Y-105353546D01*
X176446276Y-105282974D01*
X176562001Y-105188001D01*
X176585804Y-105158997D01*
X179973592Y-101771210D01*
X180193740Y-101815000D01*
X180486260Y-101815000D01*
X180773158Y-101757932D01*
X181043411Y-101645990D01*
X181286632Y-101483475D01*
X181493475Y-101276632D01*
X181655990Y-101033411D01*
X181767932Y-100763158D01*
X181825000Y-100476260D01*
X181825000Y-100183740D01*
X181781210Y-99963592D01*
X182026004Y-99718798D01*
X182055002Y-99695000D01*
X182149975Y-99579275D01*
X182220547Y-99447246D01*
X182264004Y-99303985D01*
X182275001Y-99192332D01*
X182275001Y-99192323D01*
X182278677Y-99155000D01*
X182275001Y-99117677D01*
X182275001Y-86302323D01*
X182278677Y-86265000D01*
X182275001Y-86227677D01*
X182275001Y-86227668D01*
X182264004Y-86116015D01*
X182220547Y-85972754D01*
X182149975Y-85840725D01*
X182055002Y-85725000D01*
X182026005Y-85701203D01*
X181781210Y-85456408D01*
X181825000Y-85236260D01*
X181825000Y-84943740D01*
X181781210Y-84723592D01*
X182026004Y-84478798D01*
X182055002Y-84455000D01*
X182149975Y-84339275D01*
X182220547Y-84207246D01*
X182264004Y-84063985D01*
X182275001Y-83952332D01*
X182275001Y-83952323D01*
X182278677Y-83915000D01*
X182275001Y-83877677D01*
X182275001Y-81222323D01*
X182278677Y-81185000D01*
X182275001Y-81147677D01*
X182275001Y-81147668D01*
X182264004Y-81036015D01*
X182220547Y-80892754D01*
X182149975Y-80760725D01*
X182055002Y-80645000D01*
X182026005Y-80621203D01*
X181781210Y-80376408D01*
X181825000Y-80156260D01*
X181825000Y-79863740D01*
X181767932Y-79576842D01*
X181655990Y-79306589D01*
X181493475Y-79063368D01*
X181361620Y-78931513D01*
X181434180Y-78909502D01*
X181544494Y-78850537D01*
X181641185Y-78771185D01*
X181720537Y-78674494D01*
X181779502Y-78564180D01*
X181815812Y-78444482D01*
X181828072Y-78320000D01*
X181828072Y-76620000D01*
X181815812Y-76495518D01*
X181779502Y-76375820D01*
X181720537Y-76265506D01*
X181641185Y-76168815D01*
X181544494Y-76089463D01*
X181434180Y-76030498D01*
X181314482Y-75994188D01*
X181190000Y-75981928D01*
X179490000Y-75981928D01*
X179365518Y-75994188D01*
X179245820Y-76030498D01*
X179135506Y-76089463D01*
X179038815Y-76168815D01*
X178959463Y-76265506D01*
X178900498Y-76375820D01*
X178864188Y-76495518D01*
X178851928Y-76620000D01*
X178851928Y-78320000D01*
X178864188Y-78444482D01*
X178900498Y-78564180D01*
X178959463Y-78674494D01*
X179038815Y-78771185D01*
X179135506Y-78850537D01*
X179245820Y-78909502D01*
X179318380Y-78931513D01*
X179186525Y-79063368D01*
X179089452Y-79208649D01*
X177418805Y-77538003D01*
X177395002Y-77509000D01*
X177279277Y-77414027D01*
X177147248Y-77343455D01*
X177003987Y-77299998D01*
X176892334Y-77289001D01*
X176892323Y-77289001D01*
X176855001Y-77285325D01*
X176817679Y-77289001D01*
X173674088Y-77289001D01*
X173789791Y-77009668D01*
X173863000Y-76641626D01*
X173863000Y-76266374D01*
X173789791Y-75898332D01*
X173646189Y-75551644D01*
X173437710Y-75239634D01*
X173172366Y-74974290D01*
X172860356Y-74765811D01*
X172513668Y-74622209D01*
X172145626Y-74549000D01*
X171770374Y-74549000D01*
X171402332Y-74622209D01*
X171055644Y-74765811D01*
X170743634Y-74974290D01*
X170478290Y-75239634D01*
X170269811Y-75551644D01*
X170126209Y-75898332D01*
X170053000Y-76266374D01*
X170053000Y-76641626D01*
X170126209Y-77009668D01*
X170241912Y-77289001D01*
X168594088Y-77289001D01*
X168709791Y-77009668D01*
X168783000Y-76641626D01*
X168783000Y-76266374D01*
X168709791Y-75898332D01*
X168566189Y-75551644D01*
X168357710Y-75239634D01*
X168092366Y-74974290D01*
X167780356Y-74765811D01*
X167433668Y-74622209D01*
X167065626Y-74549000D01*
X166690374Y-74549000D01*
X166322332Y-74622209D01*
X165975644Y-74765811D01*
X165663634Y-74974290D01*
X165398290Y-75239634D01*
X165189811Y-75551644D01*
X165046209Y-75898332D01*
X164973000Y-76266374D01*
X164973000Y-76641626D01*
X165046209Y-77009668D01*
X165161912Y-77289001D01*
X148151203Y-77289001D01*
X148120246Y-77272454D01*
X147976985Y-77228998D01*
X147828000Y-77214324D01*
X147679014Y-77228998D01*
X147535753Y-77272454D01*
X147403723Y-77343026D01*
X147387481Y-77356356D01*
X147287999Y-77437999D01*
X147264201Y-77466997D01*
X146538549Y-78192650D01*
X146441475Y-78047368D01*
X146309620Y-77915513D01*
X146382180Y-77893502D01*
X146492494Y-77834537D01*
X146589185Y-77755185D01*
X146668537Y-77658494D01*
X146727502Y-77548180D01*
X146763812Y-77428482D01*
X146776072Y-77304000D01*
X146776072Y-75604000D01*
X146763812Y-75479518D01*
X146727502Y-75359820D01*
X146668537Y-75249506D01*
X146589185Y-75152815D01*
X146492494Y-75073463D01*
X146382180Y-75014498D01*
X146262482Y-74978188D01*
X146138000Y-74965928D01*
X144438000Y-74965928D01*
X144313518Y-74978188D01*
X144193820Y-75014498D01*
X144083506Y-75073463D01*
X143986815Y-75152815D01*
X143907463Y-75249506D01*
X143848498Y-75359820D01*
X143812188Y-75479518D01*
X143799928Y-75604000D01*
X143799928Y-77304000D01*
X143812188Y-77428482D01*
X143848498Y-77548180D01*
X143907463Y-77658494D01*
X143986815Y-77755185D01*
X144083506Y-77834537D01*
X144193820Y-77893502D01*
X144266380Y-77915513D01*
X144134525Y-78047368D01*
X143972010Y-78290589D01*
X143860068Y-78560842D01*
X143803000Y-78847740D01*
X143803000Y-79140260D01*
X143860068Y-79427158D01*
X143972010Y-79697411D01*
X144134525Y-79940632D01*
X144341368Y-80147475D01*
X144523534Y-80269195D01*
X144406645Y-80338822D01*
X144190412Y-80533731D01*
X144016359Y-80767080D01*
X143891175Y-81029901D01*
X143846524Y-81177110D01*
X143967845Y-81407000D01*
X145161000Y-81407000D01*
X145161000Y-81387000D01*
X145415000Y-81387000D01*
X145415000Y-81407000D01*
X145435000Y-81407000D01*
X145435000Y-81661000D01*
X145415000Y-81661000D01*
X145415000Y-81681000D01*
X145161000Y-81681000D01*
X145161000Y-81661000D01*
X143967845Y-81661000D01*
X143846524Y-81890890D01*
X143891175Y-82038099D01*
X144016359Y-82300920D01*
X144190412Y-82534269D01*
X144406645Y-82729178D01*
X144523534Y-82798805D01*
X144341368Y-82920525D01*
X144134525Y-83127368D01*
X143972010Y-83370589D01*
X143860068Y-83640842D01*
X143803000Y-83927740D01*
X143803000Y-84220260D01*
X143843302Y-84422869D01*
X143821677Y-84424999D01*
X139797739Y-84424999D01*
X139796001Y-84105750D01*
X139637251Y-83947000D01*
X138438001Y-83947000D01*
X138438001Y-83967000D01*
X138184001Y-83967000D01*
X138184001Y-83947000D01*
X136984751Y-83947000D01*
X136826001Y-84105750D01*
X136824263Y-84424999D01*
X135976753Y-84424999D01*
X136047932Y-84253158D01*
X136105000Y-83966260D01*
X136105000Y-83673740D01*
X136047932Y-83386842D01*
X135935990Y-83116589D01*
X135838043Y-82970000D01*
X136822929Y-82970000D01*
X136826001Y-83534250D01*
X136984751Y-83693000D01*
X138184001Y-83693000D01*
X138184001Y-82493750D01*
X138438001Y-82493750D01*
X138438001Y-83693000D01*
X139637251Y-83693000D01*
X139796001Y-83534250D01*
X139799073Y-82970000D01*
X139786813Y-82845518D01*
X139750503Y-82725820D01*
X139691538Y-82615506D01*
X139612186Y-82518815D01*
X139515495Y-82439463D01*
X139405181Y-82380498D01*
X139285483Y-82344188D01*
X139161001Y-82331928D01*
X138596751Y-82335000D01*
X138438001Y-82493750D01*
X138184001Y-82493750D01*
X138025251Y-82335000D01*
X137461001Y-82331928D01*
X137336519Y-82344188D01*
X137216821Y-82380498D01*
X137106507Y-82439463D01*
X137009816Y-82518815D01*
X136930464Y-82615506D01*
X136871499Y-82725820D01*
X136835189Y-82845518D01*
X136822929Y-82970000D01*
X135838043Y-82970000D01*
X135773475Y-82873368D01*
X135566632Y-82666525D01*
X135384466Y-82544805D01*
X135501355Y-82475178D01*
X135717588Y-82280269D01*
X135891641Y-82046920D01*
X136016825Y-81784099D01*
X136061476Y-81636890D01*
X135940155Y-81407000D01*
X134747000Y-81407000D01*
X134747000Y-81427000D01*
X134493000Y-81427000D01*
X134493000Y-81407000D01*
X134473000Y-81407000D01*
X134473000Y-81153000D01*
X134493000Y-81153000D01*
X134493000Y-81133000D01*
X134747000Y-81133000D01*
X134747000Y-81153000D01*
X135940155Y-81153000D01*
X136061476Y-80923110D01*
X136016825Y-80775901D01*
X135891641Y-80513080D01*
X135717588Y-80279731D01*
X135501355Y-80084822D01*
X135384466Y-80015195D01*
X135566632Y-79893475D01*
X135773475Y-79686632D01*
X135935990Y-79443411D01*
X136047932Y-79173158D01*
X136105000Y-78886260D01*
X136105000Y-78593740D01*
X136047932Y-78306842D01*
X135935990Y-78036589D01*
X135773475Y-77793368D01*
X135566632Y-77586525D01*
X135392240Y-77470000D01*
X135566632Y-77353475D01*
X135773475Y-77146632D01*
X135935990Y-76903411D01*
X136047932Y-76633158D01*
X136105000Y-76346260D01*
X136105000Y-76053740D01*
X136047932Y-75766842D01*
X135935990Y-75496589D01*
X135773475Y-75253368D01*
X135566632Y-75046525D01*
X135323411Y-74884010D01*
X135053158Y-74772068D01*
X134766260Y-74715000D01*
X134473740Y-74715000D01*
X134186842Y-74772068D01*
X133916589Y-74884010D01*
X133673368Y-75046525D01*
X133541513Y-75178380D01*
X133519502Y-75105820D01*
X133460537Y-74995506D01*
X133381185Y-74898815D01*
X133284494Y-74819463D01*
X133174180Y-74760498D01*
X133054482Y-74724188D01*
X132930000Y-74711928D01*
X131230000Y-74711928D01*
X131105518Y-74724188D01*
X130985820Y-74760498D01*
X130875506Y-74819463D01*
X130778815Y-74898815D01*
X130699463Y-74995506D01*
X130640498Y-75105820D01*
X130604188Y-75225518D01*
X130591928Y-75350000D01*
X130591928Y-77050000D01*
X130604188Y-77174482D01*
X130640498Y-77294180D01*
X130699463Y-77404494D01*
X130778815Y-77501185D01*
X130875506Y-77580537D01*
X130985820Y-77639502D01*
X131058380Y-77661513D01*
X130926525Y-77793368D01*
X130764010Y-78036589D01*
X130652068Y-78306842D01*
X130595000Y-78593740D01*
X130595000Y-78886260D01*
X130652068Y-79173158D01*
X130764010Y-79443411D01*
X130926525Y-79686632D01*
X131133368Y-79893475D01*
X131307760Y-80010000D01*
X131133368Y-80126525D01*
X130926525Y-80333368D01*
X130764010Y-80576589D01*
X130652068Y-80846842D01*
X130595000Y-81133740D01*
X130595000Y-81426260D01*
X130652068Y-81713158D01*
X130764010Y-81983411D01*
X130926525Y-82226632D01*
X131133368Y-82433475D01*
X131307760Y-82550000D01*
X131133368Y-82666525D01*
X130926525Y-82873368D01*
X130764010Y-83116589D01*
X130652068Y-83386842D01*
X130595000Y-83673740D01*
X130595000Y-83966260D01*
X130652068Y-84253158D01*
X130764010Y-84523411D01*
X130926525Y-84766632D01*
X131133368Y-84973475D01*
X131315534Y-85095195D01*
X131198645Y-85164822D01*
X130982412Y-85359731D01*
X130808359Y-85593080D01*
X130683175Y-85855901D01*
X130638524Y-86003110D01*
X130759845Y-86233000D01*
X131953000Y-86233000D01*
X131953000Y-86213000D01*
X132207000Y-86213000D01*
X132207000Y-86233000D01*
X132227000Y-86233000D01*
X132227000Y-86487000D01*
X132207000Y-86487000D01*
X132207000Y-86507000D01*
X131953000Y-86507000D01*
X131953000Y-86487000D01*
X130759845Y-86487000D01*
X130638524Y-86716890D01*
X130683175Y-86864099D01*
X130808359Y-87126920D01*
X130982412Y-87360269D01*
X131198645Y-87555178D01*
X131315534Y-87624805D01*
X131133368Y-87746525D01*
X130926525Y-87953368D01*
X130764010Y-88196589D01*
X130652068Y-88466842D01*
X130595000Y-88753740D01*
X130595000Y-89046260D01*
X130652068Y-89333158D01*
X130764010Y-89603411D01*
X130926525Y-89846632D01*
X131133368Y-90053475D01*
X131307760Y-90170000D01*
X131133368Y-90286525D01*
X130926525Y-90493368D01*
X130764010Y-90736589D01*
X130652068Y-91006842D01*
X130595000Y-91293740D01*
X130595000Y-91586260D01*
X130652068Y-91873158D01*
X130764010Y-92143411D01*
X130926525Y-92386632D01*
X131133368Y-92593475D01*
X131307760Y-92710000D01*
X131133368Y-92826525D01*
X130926525Y-93033368D01*
X130764010Y-93276589D01*
X130652068Y-93546842D01*
X130595000Y-93833740D01*
X130595000Y-94126260D01*
X130652068Y-94413158D01*
X130764010Y-94683411D01*
X130926525Y-94926632D01*
X131133368Y-95133475D01*
X131307760Y-95250000D01*
X131133368Y-95366525D01*
X130926525Y-95573368D01*
X130764010Y-95816589D01*
X130652068Y-96086842D01*
X130595000Y-96373740D01*
X130595000Y-96666260D01*
X130652068Y-96953158D01*
X130764010Y-97223411D01*
X130926525Y-97466632D01*
X131133368Y-97673475D01*
X131307760Y-97790000D01*
X131133368Y-97906525D01*
X130926525Y-98113368D01*
X130764010Y-98356589D01*
X130652068Y-98626842D01*
X130595000Y-98913740D01*
X130595000Y-99206260D01*
X130652068Y-99493158D01*
X130764010Y-99763411D01*
X130926525Y-100006632D01*
X131133368Y-100213475D01*
X131307760Y-100330000D01*
X131133368Y-100446525D01*
X130926525Y-100653368D01*
X130764010Y-100896589D01*
X130652068Y-101166842D01*
X130595000Y-101453740D01*
X130595000Y-101746260D01*
X130652068Y-102033158D01*
X130764010Y-102303411D01*
X130926525Y-102546632D01*
X131133368Y-102753475D01*
X131307760Y-102870000D01*
X131133368Y-102986525D01*
X130926525Y-103193368D01*
X130764010Y-103436589D01*
X130652068Y-103706842D01*
X130595000Y-103993740D01*
X130595000Y-104286260D01*
X130652068Y-104573158D01*
X130764010Y-104843411D01*
X130926525Y-105086632D01*
X131133368Y-105293475D01*
X131315534Y-105415195D01*
X131198645Y-105484822D01*
X130982412Y-105679731D01*
X130808359Y-105913080D01*
X130683175Y-106175901D01*
X130638524Y-106323110D01*
X130759845Y-106553000D01*
X131953000Y-106553000D01*
X131953000Y-106533000D01*
X132207000Y-106533000D01*
X132207000Y-106553000D01*
X132227000Y-106553000D01*
X132227000Y-106807000D01*
X132207000Y-106807000D01*
X132207000Y-106827000D01*
X131953000Y-106827000D01*
X131953000Y-106807000D01*
X130759845Y-106807000D01*
X130638524Y-107036890D01*
X130683175Y-107184099D01*
X130808359Y-107446920D01*
X130982412Y-107680269D01*
X131198645Y-107875178D01*
X131315534Y-107944805D01*
X131133368Y-108066525D01*
X130926525Y-108273368D01*
X130764010Y-108516589D01*
X130652068Y-108786842D01*
X130595000Y-109073740D01*
X130595000Y-109366260D01*
X130652068Y-109653158D01*
X130764010Y-109923411D01*
X130926525Y-110166632D01*
X131133368Y-110373475D01*
X131307760Y-110490000D01*
X131133368Y-110606525D01*
X130926525Y-110813368D01*
X130764010Y-111056589D01*
X130652068Y-111326842D01*
X130595000Y-111613740D01*
X130595000Y-111906260D01*
X130652068Y-112193158D01*
X130764010Y-112463411D01*
X130926525Y-112706632D01*
X131133368Y-112913475D01*
X131307760Y-113030000D01*
X131133368Y-113146525D01*
X130926525Y-113353368D01*
X130764010Y-113596589D01*
X130652068Y-113866842D01*
X130595000Y-114153740D01*
X130595000Y-114446260D01*
X130652068Y-114733158D01*
X130764010Y-115003411D01*
X130926525Y-115246632D01*
X131133368Y-115453475D01*
X131307760Y-115570000D01*
X131133368Y-115686525D01*
X130926525Y-115893368D01*
X130764010Y-116136589D01*
X130652068Y-116406842D01*
X130595000Y-116693740D01*
X130595000Y-116986260D01*
X130652068Y-117273158D01*
X130764010Y-117543411D01*
X130926525Y-117786632D01*
X131133368Y-117993475D01*
X131307760Y-118110000D01*
X131133368Y-118226525D01*
X130926525Y-118433368D01*
X130764010Y-118676589D01*
X130652068Y-118946842D01*
X130595000Y-119233740D01*
X130595000Y-119526260D01*
X130652068Y-119813158D01*
X130764010Y-120083411D01*
X130926525Y-120326632D01*
X131133368Y-120533475D01*
X131307760Y-120650000D01*
X131133368Y-120766525D01*
X130926525Y-120973368D01*
X130764010Y-121216589D01*
X130652068Y-121486842D01*
X130595000Y-121773740D01*
X130595000Y-122066260D01*
X130652068Y-122353158D01*
X130764010Y-122623411D01*
X130926525Y-122866632D01*
X131133368Y-123073475D01*
X131315534Y-123195195D01*
X131198645Y-123264822D01*
X130982412Y-123459731D01*
X130808359Y-123693080D01*
X130683175Y-123955901D01*
X130638524Y-124103110D01*
X130759845Y-124333000D01*
X131953000Y-124333000D01*
X131953000Y-124313000D01*
X132207000Y-124313000D01*
X132207000Y-124333000D01*
X132227000Y-124333000D01*
X132227000Y-124587000D01*
X132207000Y-124587000D01*
X132207000Y-125780814D01*
X132436891Y-125901481D01*
X132711252Y-125804157D01*
X132961355Y-125655178D01*
X133177588Y-125460269D01*
X133348900Y-125230594D01*
X133466525Y-125406632D01*
X133673368Y-125613475D01*
X133916589Y-125775990D01*
X134186842Y-125887932D01*
X134473740Y-125945000D01*
X134766260Y-125945000D01*
X135053158Y-125887932D01*
X135323411Y-125775990D01*
X135566632Y-125613475D01*
X135773475Y-125406632D01*
X135935990Y-125163411D01*
X136047932Y-124893158D01*
X136105000Y-124606260D01*
X136105000Y-124313740D01*
X136047932Y-124026842D01*
X135935990Y-123756589D01*
X135773475Y-123513368D01*
X135566632Y-123306525D01*
X135392240Y-123190000D01*
X135566632Y-123073475D01*
X135773475Y-122866632D01*
X135935990Y-122623411D01*
X136047932Y-122353158D01*
X136105000Y-122066260D01*
X136105000Y-121773740D01*
X136051544Y-121504999D01*
X152498200Y-121504999D01*
X155964202Y-124971002D01*
X155988001Y-125000001D01*
X156103726Y-125094974D01*
X156235755Y-125165546D01*
X156379016Y-125209003D01*
X156490669Y-125220000D01*
X156490677Y-125220000D01*
X156528002Y-125223676D01*
X156565327Y-125220000D01*
X157212750Y-125220000D01*
X157289750Y-125297000D01*
X159639000Y-125297000D01*
X159639000Y-125277000D01*
X159893000Y-125277000D01*
X159893000Y-125297000D01*
X162242250Y-125297000D01*
X162319250Y-125220000D01*
X163439695Y-125220000D01*
X163532013Y-125248004D01*
X163643666Y-125259001D01*
X163643674Y-125259001D01*
X163680999Y-125262677D01*
X163718324Y-125259001D01*
X167817677Y-125259001D01*
X167854999Y-125262677D01*
X167892321Y-125259001D01*
X167892332Y-125259001D01*
X168003985Y-125248004D01*
X168147246Y-125204547D01*
X168279275Y-125133975D01*
X168395000Y-125039002D01*
X168418803Y-125009998D01*
X168441000Y-124987801D01*
X168441000Y-125114260D01*
X168498068Y-125401158D01*
X168610010Y-125671411D01*
X168772525Y-125914632D01*
X168979368Y-126121475D01*
X169222589Y-126283990D01*
X169492842Y-126395932D01*
X169726451Y-126442400D01*
X162264608Y-126442400D01*
X162296537Y-126403494D01*
X162355502Y-126293180D01*
X162391812Y-126173482D01*
X162404072Y-126049000D01*
X162401000Y-125709750D01*
X162242250Y-125551000D01*
X159893000Y-125551000D01*
X159893000Y-125571000D01*
X159639000Y-125571000D01*
X159639000Y-125551000D01*
X157289750Y-125551000D01*
X157131000Y-125709750D01*
X157127928Y-126049000D01*
X157140188Y-126173482D01*
X157176498Y-126293180D01*
X157235463Y-126403494D01*
X157267392Y-126442400D01*
X130378200Y-126442400D01*
X130378200Y-124816890D01*
X130638524Y-124816890D01*
X130683175Y-124964099D01*
X130808359Y-125226920D01*
X130982412Y-125460269D01*
X131198645Y-125655178D01*
X131448748Y-125804157D01*
X131723109Y-125901481D01*
X131953000Y-125780814D01*
X131953000Y-124587000D01*
X130759845Y-124587000D01*
X130638524Y-124816890D01*
X130378200Y-124816890D01*
X130378200Y-74268400D01*
X187578320Y-74268400D01*
X187478274Y-126442400D01*
G37*
X187478274Y-126442400D02*
X170125549Y-126442400D01*
X170359158Y-126395932D01*
X170629411Y-126283990D01*
X170872632Y-126121475D01*
X171079475Y-125914632D01*
X171241990Y-125671411D01*
X171353932Y-125401158D01*
X171411000Y-125114260D01*
X171411000Y-124821740D01*
X171367210Y-124601592D01*
X171612005Y-124356797D01*
X171641002Y-124333000D01*
X171735975Y-124217275D01*
X171806547Y-124085246D01*
X171850004Y-123941985D01*
X171861001Y-123830332D01*
X171861001Y-123830323D01*
X171864677Y-123793000D01*
X171861001Y-123755677D01*
X171861001Y-117201740D01*
X183681000Y-117201740D01*
X183681000Y-117494260D01*
X183738068Y-117781158D01*
X183850010Y-118051411D01*
X184012525Y-118294632D01*
X184219368Y-118501475D01*
X184393760Y-118618000D01*
X184219368Y-118734525D01*
X184012525Y-118941368D01*
X183850010Y-119184589D01*
X183738068Y-119454842D01*
X183681000Y-119741740D01*
X183681000Y-120034260D01*
X183738068Y-120321158D01*
X183850010Y-120591411D01*
X184012525Y-120834632D01*
X184219368Y-121041475D01*
X184462589Y-121203990D01*
X184732842Y-121315932D01*
X185019740Y-121373000D01*
X185312260Y-121373000D01*
X185599158Y-121315932D01*
X185869411Y-121203990D01*
X186112632Y-121041475D01*
X186319475Y-120834632D01*
X186481990Y-120591411D01*
X186593932Y-120321158D01*
X186651000Y-120034260D01*
X186651000Y-119741740D01*
X186593932Y-119454842D01*
X186481990Y-119184589D01*
X186319475Y-118941368D01*
X186112632Y-118734525D01*
X185938240Y-118618000D01*
X186112632Y-118501475D01*
X186319475Y-118294632D01*
X186481990Y-118051411D01*
X186593932Y-117781158D01*
X186651000Y-117494260D01*
X186651000Y-117201740D01*
X186593932Y-116914842D01*
X186481990Y-116644589D01*
X186319475Y-116401368D01*
X186112632Y-116194525D01*
X185930466Y-116072805D01*
X186047355Y-116003178D01*
X186263588Y-115808269D01*
X186437641Y-115574920D01*
X186562825Y-115312099D01*
X186607476Y-115164890D01*
X186486155Y-114935000D01*
X185293000Y-114935000D01*
X185293000Y-114955000D01*
X185039000Y-114955000D01*
X185039000Y-114935000D01*
X183845845Y-114935000D01*
X183724524Y-115164890D01*
X183769175Y-115312099D01*
X183894359Y-115574920D01*
X184068412Y-115808269D01*
X184284645Y-116003178D01*
X184401534Y-116072805D01*
X184219368Y-116194525D01*
X184012525Y-116401368D01*
X183850010Y-116644589D01*
X183738068Y-116914842D01*
X183681000Y-117201740D01*
X171861001Y-117201740D01*
X171861001Y-112624890D01*
X183724524Y-112624890D01*
X183769175Y-112772099D01*
X183894359Y-113034920D01*
X184068412Y-113268269D01*
X184284645Y-113463178D01*
X184410255Y-113538000D01*
X184284645Y-113612822D01*
X184068412Y-113807731D01*
X183894359Y-114041080D01*
X183769175Y-114303901D01*
X183724524Y-114451110D01*
X183845845Y-114681000D01*
X185039000Y-114681000D01*
X185039000Y-112395000D01*
X185293000Y-112395000D01*
X185293000Y-114681000D01*
X186486155Y-114681000D01*
X186607476Y-114451110D01*
X186562825Y-114303901D01*
X186437641Y-114041080D01*
X186263588Y-113807731D01*
X186047355Y-113612822D01*
X185921745Y-113538000D01*
X186047355Y-113463178D01*
X186263588Y-113268269D01*
X186437641Y-113034920D01*
X186562825Y-112772099D01*
X186607476Y-112624890D01*
X186486155Y-112395000D01*
X185293000Y-112395000D01*
X185039000Y-112395000D01*
X183845845Y-112395000D01*
X183724524Y-112624890D01*
X171861001Y-112624890D01*
X171861001Y-110940323D01*
X171864677Y-110903000D01*
X171861001Y-110865677D01*
X171861001Y-110865668D01*
X171850004Y-110754015D01*
X171806547Y-110610754D01*
X171735975Y-110478725D01*
X171641002Y-110363000D01*
X171612004Y-110339202D01*
X171367210Y-110094408D01*
X171411000Y-109874260D01*
X171411000Y-109581740D01*
X171367210Y-109361592D01*
X171612004Y-109116798D01*
X171641002Y-109093000D01*
X171735975Y-108977275D01*
X171806547Y-108845246D01*
X171850004Y-108701985D01*
X171861001Y-108590332D01*
X171861001Y-108590323D01*
X171864677Y-108553000D01*
X171861001Y-108515677D01*
X171861001Y-106338000D01*
X183677928Y-106338000D01*
X183677928Y-108038000D01*
X183690188Y-108162482D01*
X183726498Y-108282180D01*
X183785463Y-108392494D01*
X183864815Y-108489185D01*
X183961506Y-108568537D01*
X184071820Y-108627502D01*
X184144380Y-108649513D01*
X184012525Y-108781368D01*
X183850010Y-109024589D01*
X183738068Y-109294842D01*
X183681000Y-109581740D01*
X183681000Y-109874260D01*
X183738068Y-110161158D01*
X183850010Y-110431411D01*
X184012525Y-110674632D01*
X184219368Y-110881475D01*
X184401534Y-111003195D01*
X184284645Y-111072822D01*
X184068412Y-111267731D01*
X183894359Y-111501080D01*
X183769175Y-111763901D01*
X183724524Y-111911110D01*
X183845845Y-112141000D01*
X185039000Y-112141000D01*
X185039000Y-112121000D01*
X185293000Y-112121000D01*
X185293000Y-112141000D01*
X186486155Y-112141000D01*
X186607476Y-111911110D01*
X186562825Y-111763901D01*
X186437641Y-111501080D01*
X186263588Y-111267731D01*
X186047355Y-111072822D01*
X185930466Y-111003195D01*
X186112632Y-110881475D01*
X186319475Y-110674632D01*
X186481990Y-110431411D01*
X186593932Y-110161158D01*
X186651000Y-109874260D01*
X186651000Y-109581740D01*
X186593932Y-109294842D01*
X186481990Y-109024589D01*
X186319475Y-108781368D01*
X186187620Y-108649513D01*
X186260180Y-108627502D01*
X186370494Y-108568537D01*
X186467185Y-108489185D01*
X186546537Y-108392494D01*
X186605502Y-108282180D01*
X186641812Y-108162482D01*
X186654072Y-108038000D01*
X186654072Y-106338000D01*
X186641812Y-106213518D01*
X186605502Y-106093820D01*
X186546537Y-105983506D01*
X186467185Y-105886815D01*
X186370494Y-105807463D01*
X186260180Y-105748498D01*
X186140482Y-105712188D01*
X186016000Y-105699928D01*
X184316000Y-105699928D01*
X184191518Y-105712188D01*
X184071820Y-105748498D01*
X183961506Y-105807463D01*
X183864815Y-105886815D01*
X183785463Y-105983506D01*
X183726498Y-106093820D01*
X183690188Y-106213518D01*
X183677928Y-106338000D01*
X171861001Y-106338000D01*
X171861001Y-105860323D01*
X171864677Y-105823000D01*
X171861001Y-105785677D01*
X171861001Y-105785668D01*
X171850004Y-105674015D01*
X171806547Y-105530754D01*
X171740933Y-105408000D01*
X175984678Y-105408000D01*
X176022000Y-105411676D01*
X176059322Y-105408000D01*
X176059333Y-105408000D01*
X176170986Y-105397003D01*
X176314247Y-105353546D01*
X176446276Y-105282974D01*
X176562001Y-105188001D01*
X176585804Y-105158997D01*
X179973592Y-101771210D01*
X180193740Y-101815000D01*
X180486260Y-101815000D01*
X180773158Y-101757932D01*
X181043411Y-101645990D01*
X181286632Y-101483475D01*
X181493475Y-101276632D01*
X181655990Y-101033411D01*
X181767932Y-100763158D01*
X181825000Y-100476260D01*
X181825000Y-100183740D01*
X181781210Y-99963592D01*
X182026004Y-99718798D01*
X182055002Y-99695000D01*
X182149975Y-99579275D01*
X182220547Y-99447246D01*
X182264004Y-99303985D01*
X182275001Y-99192332D01*
X182275001Y-99192323D01*
X182278677Y-99155000D01*
X182275001Y-99117677D01*
X182275001Y-86302323D01*
X182278677Y-86265000D01*
X182275001Y-86227677D01*
X182275001Y-86227668D01*
X182264004Y-86116015D01*
X182220547Y-85972754D01*
X182149975Y-85840725D01*
X182055002Y-85725000D01*
X182026005Y-85701203D01*
X181781210Y-85456408D01*
X181825000Y-85236260D01*
X181825000Y-84943740D01*
X181781210Y-84723592D01*
X182026004Y-84478798D01*
X182055002Y-84455000D01*
X182149975Y-84339275D01*
X182220547Y-84207246D01*
X182264004Y-84063985D01*
X182275001Y-83952332D01*
X182275001Y-83952323D01*
X182278677Y-83915000D01*
X182275001Y-83877677D01*
X182275001Y-81222323D01*
X182278677Y-81185000D01*
X182275001Y-81147677D01*
X182275001Y-81147668D01*
X182264004Y-81036015D01*
X182220547Y-80892754D01*
X182149975Y-80760725D01*
X182055002Y-80645000D01*
X182026005Y-80621203D01*
X181781210Y-80376408D01*
X181825000Y-80156260D01*
X181825000Y-79863740D01*
X181767932Y-79576842D01*
X181655990Y-79306589D01*
X181493475Y-79063368D01*
X181361620Y-78931513D01*
X181434180Y-78909502D01*
X181544494Y-78850537D01*
X181641185Y-78771185D01*
X181720537Y-78674494D01*
X181779502Y-78564180D01*
X181815812Y-78444482D01*
X181828072Y-78320000D01*
X181828072Y-76620000D01*
X181815812Y-76495518D01*
X181779502Y-76375820D01*
X181720537Y-76265506D01*
X181641185Y-76168815D01*
X181544494Y-76089463D01*
X181434180Y-76030498D01*
X181314482Y-75994188D01*
X181190000Y-75981928D01*
X179490000Y-75981928D01*
X179365518Y-75994188D01*
X179245820Y-76030498D01*
X179135506Y-76089463D01*
X179038815Y-76168815D01*
X178959463Y-76265506D01*
X178900498Y-76375820D01*
X178864188Y-76495518D01*
X178851928Y-76620000D01*
X178851928Y-78320000D01*
X178864188Y-78444482D01*
X178900498Y-78564180D01*
X178959463Y-78674494D01*
X179038815Y-78771185D01*
X179135506Y-78850537D01*
X179245820Y-78909502D01*
X179318380Y-78931513D01*
X179186525Y-79063368D01*
X179089452Y-79208649D01*
X177418805Y-77538003D01*
X177395002Y-77509000D01*
X177279277Y-77414027D01*
X177147248Y-77343455D01*
X177003987Y-77299998D01*
X176892334Y-77289001D01*
X176892323Y-77289001D01*
X176855001Y-77285325D01*
X176817679Y-77289001D01*
X173674088Y-77289001D01*
X173789791Y-77009668D01*
X173863000Y-76641626D01*
X173863000Y-76266374D01*
X173789791Y-75898332D01*
X173646189Y-75551644D01*
X173437710Y-75239634D01*
X173172366Y-74974290D01*
X172860356Y-74765811D01*
X172513668Y-74622209D01*
X172145626Y-74549000D01*
X171770374Y-74549000D01*
X171402332Y-74622209D01*
X171055644Y-74765811D01*
X170743634Y-74974290D01*
X170478290Y-75239634D01*
X170269811Y-75551644D01*
X170126209Y-75898332D01*
X170053000Y-76266374D01*
X170053000Y-76641626D01*
X170126209Y-77009668D01*
X170241912Y-77289001D01*
X168594088Y-77289001D01*
X168709791Y-77009668D01*
X168783000Y-76641626D01*
X168783000Y-76266374D01*
X168709791Y-75898332D01*
X168566189Y-75551644D01*
X168357710Y-75239634D01*
X168092366Y-74974290D01*
X167780356Y-74765811D01*
X167433668Y-74622209D01*
X167065626Y-74549000D01*
X166690374Y-74549000D01*
X166322332Y-74622209D01*
X165975644Y-74765811D01*
X165663634Y-74974290D01*
X165398290Y-75239634D01*
X165189811Y-75551644D01*
X165046209Y-75898332D01*
X164973000Y-76266374D01*
X164973000Y-76641626D01*
X165046209Y-77009668D01*
X165161912Y-77289001D01*
X148151203Y-77289001D01*
X148120246Y-77272454D01*
X147976985Y-77228998D01*
X147828000Y-77214324D01*
X147679014Y-77228998D01*
X147535753Y-77272454D01*
X147403723Y-77343026D01*
X147387481Y-77356356D01*
X147287999Y-77437999D01*
X147264201Y-77466997D01*
X146538549Y-78192650D01*
X146441475Y-78047368D01*
X146309620Y-77915513D01*
X146382180Y-77893502D01*
X146492494Y-77834537D01*
X146589185Y-77755185D01*
X146668537Y-77658494D01*
X146727502Y-77548180D01*
X146763812Y-77428482D01*
X146776072Y-77304000D01*
X146776072Y-75604000D01*
X146763812Y-75479518D01*
X146727502Y-75359820D01*
X146668537Y-75249506D01*
X146589185Y-75152815D01*
X146492494Y-75073463D01*
X146382180Y-75014498D01*
X146262482Y-74978188D01*
X146138000Y-74965928D01*
X144438000Y-74965928D01*
X144313518Y-74978188D01*
X144193820Y-75014498D01*
X144083506Y-75073463D01*
X143986815Y-75152815D01*
X143907463Y-75249506D01*
X143848498Y-75359820D01*
X143812188Y-75479518D01*
X143799928Y-75604000D01*
X143799928Y-77304000D01*
X143812188Y-77428482D01*
X143848498Y-77548180D01*
X143907463Y-77658494D01*
X143986815Y-77755185D01*
X144083506Y-77834537D01*
X144193820Y-77893502D01*
X144266380Y-77915513D01*
X144134525Y-78047368D01*
X143972010Y-78290589D01*
X143860068Y-78560842D01*
X143803000Y-78847740D01*
X143803000Y-79140260D01*
X143860068Y-79427158D01*
X143972010Y-79697411D01*
X144134525Y-79940632D01*
X144341368Y-80147475D01*
X144523534Y-80269195D01*
X144406645Y-80338822D01*
X144190412Y-80533731D01*
X144016359Y-80767080D01*
X143891175Y-81029901D01*
X143846524Y-81177110D01*
X143967845Y-81407000D01*
X145161000Y-81407000D01*
X145161000Y-81387000D01*
X145415000Y-81387000D01*
X145415000Y-81407000D01*
X145435000Y-81407000D01*
X145435000Y-81661000D01*
X145415000Y-81661000D01*
X145415000Y-81681000D01*
X145161000Y-81681000D01*
X145161000Y-81661000D01*
X143967845Y-81661000D01*
X143846524Y-81890890D01*
X143891175Y-82038099D01*
X144016359Y-82300920D01*
X144190412Y-82534269D01*
X144406645Y-82729178D01*
X144523534Y-82798805D01*
X144341368Y-82920525D01*
X144134525Y-83127368D01*
X143972010Y-83370589D01*
X143860068Y-83640842D01*
X143803000Y-83927740D01*
X143803000Y-84220260D01*
X143843302Y-84422869D01*
X143821677Y-84424999D01*
X139797739Y-84424999D01*
X139796001Y-84105750D01*
X139637251Y-83947000D01*
X138438001Y-83947000D01*
X138438001Y-83967000D01*
X138184001Y-83967000D01*
X138184001Y-83947000D01*
X136984751Y-83947000D01*
X136826001Y-84105750D01*
X136824263Y-84424999D01*
X135976753Y-84424999D01*
X136047932Y-84253158D01*
X136105000Y-83966260D01*
X136105000Y-83673740D01*
X136047932Y-83386842D01*
X135935990Y-83116589D01*
X135838043Y-82970000D01*
X136822929Y-82970000D01*
X136826001Y-83534250D01*
X136984751Y-83693000D01*
X138184001Y-83693000D01*
X138184001Y-82493750D01*
X138438001Y-82493750D01*
X138438001Y-83693000D01*
X139637251Y-83693000D01*
X139796001Y-83534250D01*
X139799073Y-82970000D01*
X139786813Y-82845518D01*
X139750503Y-82725820D01*
X139691538Y-82615506D01*
X139612186Y-82518815D01*
X139515495Y-82439463D01*
X139405181Y-82380498D01*
X139285483Y-82344188D01*
X139161001Y-82331928D01*
X138596751Y-82335000D01*
X138438001Y-82493750D01*
X138184001Y-82493750D01*
X138025251Y-82335000D01*
X137461001Y-82331928D01*
X137336519Y-82344188D01*
X137216821Y-82380498D01*
X137106507Y-82439463D01*
X137009816Y-82518815D01*
X136930464Y-82615506D01*
X136871499Y-82725820D01*
X136835189Y-82845518D01*
X136822929Y-82970000D01*
X135838043Y-82970000D01*
X135773475Y-82873368D01*
X135566632Y-82666525D01*
X135384466Y-82544805D01*
X135501355Y-82475178D01*
X135717588Y-82280269D01*
X135891641Y-82046920D01*
X136016825Y-81784099D01*
X136061476Y-81636890D01*
X135940155Y-81407000D01*
X134747000Y-81407000D01*
X134747000Y-81427000D01*
X134493000Y-81427000D01*
X134493000Y-81407000D01*
X134473000Y-81407000D01*
X134473000Y-81153000D01*
X134493000Y-81153000D01*
X134493000Y-81133000D01*
X134747000Y-81133000D01*
X134747000Y-81153000D01*
X135940155Y-81153000D01*
X136061476Y-80923110D01*
X136016825Y-80775901D01*
X135891641Y-80513080D01*
X135717588Y-80279731D01*
X135501355Y-80084822D01*
X135384466Y-80015195D01*
X135566632Y-79893475D01*
X135773475Y-79686632D01*
X135935990Y-79443411D01*
X136047932Y-79173158D01*
X136105000Y-78886260D01*
X136105000Y-78593740D01*
X136047932Y-78306842D01*
X135935990Y-78036589D01*
X135773475Y-77793368D01*
X135566632Y-77586525D01*
X135392240Y-77470000D01*
X135566632Y-77353475D01*
X135773475Y-77146632D01*
X135935990Y-76903411D01*
X136047932Y-76633158D01*
X136105000Y-76346260D01*
X136105000Y-76053740D01*
X136047932Y-75766842D01*
X135935990Y-75496589D01*
X135773475Y-75253368D01*
X135566632Y-75046525D01*
X135323411Y-74884010D01*
X135053158Y-74772068D01*
X134766260Y-74715000D01*
X134473740Y-74715000D01*
X134186842Y-74772068D01*
X133916589Y-74884010D01*
X133673368Y-75046525D01*
X133541513Y-75178380D01*
X133519502Y-75105820D01*
X133460537Y-74995506D01*
X133381185Y-74898815D01*
X133284494Y-74819463D01*
X133174180Y-74760498D01*
X133054482Y-74724188D01*
X132930000Y-74711928D01*
X131230000Y-74711928D01*
X131105518Y-74724188D01*
X130985820Y-74760498D01*
X130875506Y-74819463D01*
X130778815Y-74898815D01*
X130699463Y-74995506D01*
X130640498Y-75105820D01*
X130604188Y-75225518D01*
X130591928Y-75350000D01*
X130591928Y-77050000D01*
X130604188Y-77174482D01*
X130640498Y-77294180D01*
X130699463Y-77404494D01*
X130778815Y-77501185D01*
X130875506Y-77580537D01*
X130985820Y-77639502D01*
X131058380Y-77661513D01*
X130926525Y-77793368D01*
X130764010Y-78036589D01*
X130652068Y-78306842D01*
X130595000Y-78593740D01*
X130595000Y-78886260D01*
X130652068Y-79173158D01*
X130764010Y-79443411D01*
X130926525Y-79686632D01*
X131133368Y-79893475D01*
X131307760Y-80010000D01*
X131133368Y-80126525D01*
X130926525Y-80333368D01*
X130764010Y-80576589D01*
X130652068Y-80846842D01*
X130595000Y-81133740D01*
X130595000Y-81426260D01*
X130652068Y-81713158D01*
X130764010Y-81983411D01*
X130926525Y-82226632D01*
X131133368Y-82433475D01*
X131307760Y-82550000D01*
X131133368Y-82666525D01*
X130926525Y-82873368D01*
X130764010Y-83116589D01*
X130652068Y-83386842D01*
X130595000Y-83673740D01*
X130595000Y-83966260D01*
X130652068Y-84253158D01*
X130764010Y-84523411D01*
X130926525Y-84766632D01*
X131133368Y-84973475D01*
X131315534Y-85095195D01*
X131198645Y-85164822D01*
X130982412Y-85359731D01*
X130808359Y-85593080D01*
X130683175Y-85855901D01*
X130638524Y-86003110D01*
X130759845Y-86233000D01*
X131953000Y-86233000D01*
X131953000Y-86213000D01*
X132207000Y-86213000D01*
X132207000Y-86233000D01*
X132227000Y-86233000D01*
X132227000Y-86487000D01*
X132207000Y-86487000D01*
X132207000Y-86507000D01*
X131953000Y-86507000D01*
X131953000Y-86487000D01*
X130759845Y-86487000D01*
X130638524Y-86716890D01*
X130683175Y-86864099D01*
X130808359Y-87126920D01*
X130982412Y-87360269D01*
X131198645Y-87555178D01*
X131315534Y-87624805D01*
X131133368Y-87746525D01*
X130926525Y-87953368D01*
X130764010Y-88196589D01*
X130652068Y-88466842D01*
X130595000Y-88753740D01*
X130595000Y-89046260D01*
X130652068Y-89333158D01*
X130764010Y-89603411D01*
X130926525Y-89846632D01*
X131133368Y-90053475D01*
X131307760Y-90170000D01*
X131133368Y-90286525D01*
X130926525Y-90493368D01*
X130764010Y-90736589D01*
X130652068Y-91006842D01*
X130595000Y-91293740D01*
X130595000Y-91586260D01*
X130652068Y-91873158D01*
X130764010Y-92143411D01*
X130926525Y-92386632D01*
X131133368Y-92593475D01*
X131307760Y-92710000D01*
X131133368Y-92826525D01*
X130926525Y-93033368D01*
X130764010Y-93276589D01*
X130652068Y-93546842D01*
X130595000Y-93833740D01*
X130595000Y-94126260D01*
X130652068Y-94413158D01*
X130764010Y-94683411D01*
X130926525Y-94926632D01*
X131133368Y-95133475D01*
X131307760Y-95250000D01*
X131133368Y-95366525D01*
X130926525Y-95573368D01*
X130764010Y-95816589D01*
X130652068Y-96086842D01*
X130595000Y-96373740D01*
X130595000Y-96666260D01*
X130652068Y-96953158D01*
X130764010Y-97223411D01*
X130926525Y-97466632D01*
X131133368Y-97673475D01*
X131307760Y-97790000D01*
X131133368Y-97906525D01*
X130926525Y-98113368D01*
X130764010Y-98356589D01*
X130652068Y-98626842D01*
X130595000Y-98913740D01*
X130595000Y-99206260D01*
X130652068Y-99493158D01*
X130764010Y-99763411D01*
X130926525Y-100006632D01*
X131133368Y-100213475D01*
X131307760Y-100330000D01*
X131133368Y-100446525D01*
X130926525Y-100653368D01*
X130764010Y-100896589D01*
X130652068Y-101166842D01*
X130595000Y-101453740D01*
X130595000Y-101746260D01*
X130652068Y-102033158D01*
X130764010Y-102303411D01*
X130926525Y-102546632D01*
X131133368Y-102753475D01*
X131307760Y-102870000D01*
X131133368Y-102986525D01*
X130926525Y-103193368D01*
X130764010Y-103436589D01*
X130652068Y-103706842D01*
X130595000Y-103993740D01*
X130595000Y-104286260D01*
X130652068Y-104573158D01*
X130764010Y-104843411D01*
X130926525Y-105086632D01*
X131133368Y-105293475D01*
X131315534Y-105415195D01*
X131198645Y-105484822D01*
X130982412Y-105679731D01*
X130808359Y-105913080D01*
X130683175Y-106175901D01*
X130638524Y-106323110D01*
X130759845Y-106553000D01*
X131953000Y-106553000D01*
X131953000Y-106533000D01*
X132207000Y-106533000D01*
X132207000Y-106553000D01*
X132227000Y-106553000D01*
X132227000Y-106807000D01*
X132207000Y-106807000D01*
X132207000Y-106827000D01*
X131953000Y-106827000D01*
X131953000Y-106807000D01*
X130759845Y-106807000D01*
X130638524Y-107036890D01*
X130683175Y-107184099D01*
X130808359Y-107446920D01*
X130982412Y-107680269D01*
X131198645Y-107875178D01*
X131315534Y-107944805D01*
X131133368Y-108066525D01*
X130926525Y-108273368D01*
X130764010Y-108516589D01*
X130652068Y-108786842D01*
X130595000Y-109073740D01*
X130595000Y-109366260D01*
X130652068Y-109653158D01*
X130764010Y-109923411D01*
X130926525Y-110166632D01*
X131133368Y-110373475D01*
X131307760Y-110490000D01*
X131133368Y-110606525D01*
X130926525Y-110813368D01*
X130764010Y-111056589D01*
X130652068Y-111326842D01*
X130595000Y-111613740D01*
X130595000Y-111906260D01*
X130652068Y-112193158D01*
X130764010Y-112463411D01*
X130926525Y-112706632D01*
X131133368Y-112913475D01*
X131307760Y-113030000D01*
X131133368Y-113146525D01*
X130926525Y-113353368D01*
X130764010Y-113596589D01*
X130652068Y-113866842D01*
X130595000Y-114153740D01*
X130595000Y-114446260D01*
X130652068Y-114733158D01*
X130764010Y-115003411D01*
X130926525Y-115246632D01*
X131133368Y-115453475D01*
X131307760Y-115570000D01*
X131133368Y-115686525D01*
X130926525Y-115893368D01*
X130764010Y-116136589D01*
X130652068Y-116406842D01*
X130595000Y-116693740D01*
X130595000Y-116986260D01*
X130652068Y-117273158D01*
X130764010Y-117543411D01*
X130926525Y-117786632D01*
X131133368Y-117993475D01*
X131307760Y-118110000D01*
X131133368Y-118226525D01*
X130926525Y-118433368D01*
X130764010Y-118676589D01*
X130652068Y-118946842D01*
X130595000Y-119233740D01*
X130595000Y-119526260D01*
X130652068Y-119813158D01*
X130764010Y-120083411D01*
X130926525Y-120326632D01*
X131133368Y-120533475D01*
X131307760Y-120650000D01*
X131133368Y-120766525D01*
X130926525Y-120973368D01*
X130764010Y-121216589D01*
X130652068Y-121486842D01*
X130595000Y-121773740D01*
X130595000Y-122066260D01*
X130652068Y-122353158D01*
X130764010Y-122623411D01*
X130926525Y-122866632D01*
X131133368Y-123073475D01*
X131315534Y-123195195D01*
X131198645Y-123264822D01*
X130982412Y-123459731D01*
X130808359Y-123693080D01*
X130683175Y-123955901D01*
X130638524Y-124103110D01*
X130759845Y-124333000D01*
X131953000Y-124333000D01*
X131953000Y-124313000D01*
X132207000Y-124313000D01*
X132207000Y-124333000D01*
X132227000Y-124333000D01*
X132227000Y-124587000D01*
X132207000Y-124587000D01*
X132207000Y-125780814D01*
X132436891Y-125901481D01*
X132711252Y-125804157D01*
X132961355Y-125655178D01*
X133177588Y-125460269D01*
X133348900Y-125230594D01*
X133466525Y-125406632D01*
X133673368Y-125613475D01*
X133916589Y-125775990D01*
X134186842Y-125887932D01*
X134473740Y-125945000D01*
X134766260Y-125945000D01*
X135053158Y-125887932D01*
X135323411Y-125775990D01*
X135566632Y-125613475D01*
X135773475Y-125406632D01*
X135935990Y-125163411D01*
X136047932Y-124893158D01*
X136105000Y-124606260D01*
X136105000Y-124313740D01*
X136047932Y-124026842D01*
X135935990Y-123756589D01*
X135773475Y-123513368D01*
X135566632Y-123306525D01*
X135392240Y-123190000D01*
X135566632Y-123073475D01*
X135773475Y-122866632D01*
X135935990Y-122623411D01*
X136047932Y-122353158D01*
X136105000Y-122066260D01*
X136105000Y-121773740D01*
X136051544Y-121504999D01*
X152498200Y-121504999D01*
X155964202Y-124971002D01*
X155988001Y-125000001D01*
X156103726Y-125094974D01*
X156235755Y-125165546D01*
X156379016Y-125209003D01*
X156490669Y-125220000D01*
X156490677Y-125220000D01*
X156528002Y-125223676D01*
X156565327Y-125220000D01*
X157212750Y-125220000D01*
X157289750Y-125297000D01*
X159639000Y-125297000D01*
X159639000Y-125277000D01*
X159893000Y-125277000D01*
X159893000Y-125297000D01*
X162242250Y-125297000D01*
X162319250Y-125220000D01*
X163439695Y-125220000D01*
X163532013Y-125248004D01*
X163643666Y-125259001D01*
X163643674Y-125259001D01*
X163680999Y-125262677D01*
X163718324Y-125259001D01*
X167817677Y-125259001D01*
X167854999Y-125262677D01*
X167892321Y-125259001D01*
X167892332Y-125259001D01*
X168003985Y-125248004D01*
X168147246Y-125204547D01*
X168279275Y-125133975D01*
X168395000Y-125039002D01*
X168418803Y-125009998D01*
X168441000Y-124987801D01*
X168441000Y-125114260D01*
X168498068Y-125401158D01*
X168610010Y-125671411D01*
X168772525Y-125914632D01*
X168979368Y-126121475D01*
X169222589Y-126283990D01*
X169492842Y-126395932D01*
X169726451Y-126442400D01*
X162264608Y-126442400D01*
X162296537Y-126403494D01*
X162355502Y-126293180D01*
X162391812Y-126173482D01*
X162404072Y-126049000D01*
X162401000Y-125709750D01*
X162242250Y-125551000D01*
X159893000Y-125551000D01*
X159893000Y-125571000D01*
X159639000Y-125571000D01*
X159639000Y-125551000D01*
X157289750Y-125551000D01*
X157131000Y-125709750D01*
X157127928Y-126049000D01*
X157140188Y-126173482D01*
X157176498Y-126293180D01*
X157235463Y-126403494D01*
X157267392Y-126442400D01*
X130378200Y-126442400D01*
X130378200Y-124816890D01*
X130638524Y-124816890D01*
X130683175Y-124964099D01*
X130808359Y-125226920D01*
X130982412Y-125460269D01*
X131198645Y-125655178D01*
X131448748Y-125804157D01*
X131723109Y-125901481D01*
X131953000Y-125780814D01*
X131953000Y-124587000D01*
X130759845Y-124587000D01*
X130638524Y-124816890D01*
X130378200Y-124816890D01*
X130378200Y-74268400D01*
X187578320Y-74268400D01*
X187478274Y-126442400D01*
G36*
X157128759Y-118540563D02*
G01*
X157127928Y-118549000D01*
X157127928Y-119799000D01*
X157140188Y-119923482D01*
X157176498Y-120043180D01*
X157235463Y-120153494D01*
X157314815Y-120250185D01*
X157411506Y-120329537D01*
X157521820Y-120388502D01*
X157641518Y-120424812D01*
X157766000Y-120437072D01*
X161766000Y-120437072D01*
X161890482Y-120424812D01*
X162010180Y-120388502D01*
X162120494Y-120329537D01*
X162217185Y-120250185D01*
X162296537Y-120153494D01*
X162355502Y-120043180D01*
X162391812Y-119923482D01*
X162404072Y-119799000D01*
X162404072Y-118983999D01*
X167947198Y-118983999D01*
X168484791Y-119521592D01*
X168441000Y-119741740D01*
X168441000Y-120034260D01*
X168498068Y-120321158D01*
X168610010Y-120591411D01*
X168772525Y-120834632D01*
X168979368Y-121041475D01*
X169153760Y-121158000D01*
X168979368Y-121274525D01*
X168772525Y-121481368D01*
X168610010Y-121724589D01*
X168498068Y-121994842D01*
X168441000Y-122281740D01*
X168441000Y-122574260D01*
X168484790Y-122794408D01*
X167540198Y-123739001D01*
X165829072Y-123739001D01*
X165829072Y-120174000D01*
X165816812Y-120049518D01*
X165780502Y-119929820D01*
X165721537Y-119819506D01*
X165642185Y-119722815D01*
X165545494Y-119643463D01*
X165435180Y-119584498D01*
X165315482Y-119548188D01*
X165191000Y-119535928D01*
X163941000Y-119535928D01*
X163816518Y-119548188D01*
X163696820Y-119584498D01*
X163586506Y-119643463D01*
X163489815Y-119722815D01*
X163410463Y-119819506D01*
X163351498Y-119929820D01*
X163315188Y-120049518D01*
X163302928Y-120174000D01*
X163302928Y-123700000D01*
X156842804Y-123700000D01*
X153376805Y-120234002D01*
X153353002Y-120204998D01*
X153237277Y-120110025D01*
X153105248Y-120039453D01*
X152961987Y-119995996D01*
X152850334Y-119984999D01*
X152850323Y-119984999D01*
X152813001Y-119981323D01*
X152775679Y-119984999D01*
X135976753Y-119984999D01*
X136047932Y-119813158D01*
X136105000Y-119526260D01*
X136105000Y-119233740D01*
X136047932Y-118946842D01*
X135976753Y-118775001D01*
X139469900Y-118775001D01*
X139507222Y-118778677D01*
X139544544Y-118775001D01*
X139544555Y-118775001D01*
X139656208Y-118764004D01*
X139799469Y-118720547D01*
X139931498Y-118649975D01*
X140047223Y-118555002D01*
X140071026Y-118525998D01*
X140826760Y-117770264D01*
X140842366Y-117821709D01*
X140956758Y-118035718D01*
X141110702Y-118223299D01*
X141298283Y-118377243D01*
X141512292Y-118491634D01*
X141744506Y-118562075D01*
X141986000Y-118585860D01*
X142227495Y-118562075D01*
X142459709Y-118491634D01*
X142673718Y-118377243D01*
X142836901Y-118243322D01*
X143000083Y-118377243D01*
X143214092Y-118491634D01*
X143446306Y-118562075D01*
X143687800Y-118585860D01*
X143929295Y-118562075D01*
X144161509Y-118491634D01*
X144375518Y-118377243D01*
X144540589Y-118241773D01*
X144608317Y-118308887D01*
X144810789Y-118442845D01*
X145035504Y-118534728D01*
X145072479Y-118538383D01*
X145262600Y-118413609D01*
X145262600Y-117221000D01*
X145242600Y-117221000D01*
X145242600Y-116967000D01*
X145262600Y-116967000D01*
X145262600Y-116947000D01*
X145516600Y-116947000D01*
X145516600Y-116967000D01*
X145536600Y-116967000D01*
X145536600Y-117221000D01*
X145516600Y-117221000D01*
X145516600Y-118413609D01*
X145706721Y-118538383D01*
X145743696Y-118534728D01*
X145968411Y-118442845D01*
X146170883Y-118308887D01*
X146238612Y-118241772D01*
X146403683Y-118377243D01*
X146617692Y-118491634D01*
X146849906Y-118562075D01*
X147091400Y-118585860D01*
X147332895Y-118562075D01*
X147565109Y-118491634D01*
X147779118Y-118377243D01*
X147942301Y-118243322D01*
X148105483Y-118377243D01*
X148319492Y-118491634D01*
X148551706Y-118562075D01*
X148793200Y-118585860D01*
X149034695Y-118562075D01*
X149266909Y-118491634D01*
X149480918Y-118377243D01*
X149668499Y-118223299D01*
X149822443Y-118035718D01*
X149936834Y-117821708D01*
X150007275Y-117589494D01*
X150025100Y-117408512D01*
X150025100Y-116779487D01*
X150015113Y-116678090D01*
X155266287Y-116678090D01*
X157128759Y-118540563D01*
G37*
X157128759Y-118540563D02*
X157127928Y-118549000D01*
X157127928Y-119799000D01*
X157140188Y-119923482D01*
X157176498Y-120043180D01*
X157235463Y-120153494D01*
X157314815Y-120250185D01*
X157411506Y-120329537D01*
X157521820Y-120388502D01*
X157641518Y-120424812D01*
X157766000Y-120437072D01*
X161766000Y-120437072D01*
X161890482Y-120424812D01*
X162010180Y-120388502D01*
X162120494Y-120329537D01*
X162217185Y-120250185D01*
X162296537Y-120153494D01*
X162355502Y-120043180D01*
X162391812Y-119923482D01*
X162404072Y-119799000D01*
X162404072Y-118983999D01*
X167947198Y-118983999D01*
X168484791Y-119521592D01*
X168441000Y-119741740D01*
X168441000Y-120034260D01*
X168498068Y-120321158D01*
X168610010Y-120591411D01*
X168772525Y-120834632D01*
X168979368Y-121041475D01*
X169153760Y-121158000D01*
X168979368Y-121274525D01*
X168772525Y-121481368D01*
X168610010Y-121724589D01*
X168498068Y-121994842D01*
X168441000Y-122281740D01*
X168441000Y-122574260D01*
X168484790Y-122794408D01*
X167540198Y-123739001D01*
X165829072Y-123739001D01*
X165829072Y-120174000D01*
X165816812Y-120049518D01*
X165780502Y-119929820D01*
X165721537Y-119819506D01*
X165642185Y-119722815D01*
X165545494Y-119643463D01*
X165435180Y-119584498D01*
X165315482Y-119548188D01*
X165191000Y-119535928D01*
X163941000Y-119535928D01*
X163816518Y-119548188D01*
X163696820Y-119584498D01*
X163586506Y-119643463D01*
X163489815Y-119722815D01*
X163410463Y-119819506D01*
X163351498Y-119929820D01*
X163315188Y-120049518D01*
X163302928Y-120174000D01*
X163302928Y-123700000D01*
X156842804Y-123700000D01*
X153376805Y-120234002D01*
X153353002Y-120204998D01*
X153237277Y-120110025D01*
X153105248Y-120039453D01*
X152961987Y-119995996D01*
X152850334Y-119984999D01*
X152850323Y-119984999D01*
X152813001Y-119981323D01*
X152775679Y-119984999D01*
X135976753Y-119984999D01*
X136047932Y-119813158D01*
X136105000Y-119526260D01*
X136105000Y-119233740D01*
X136047932Y-118946842D01*
X135976753Y-118775001D01*
X139469900Y-118775001D01*
X139507222Y-118778677D01*
X139544544Y-118775001D01*
X139544555Y-118775001D01*
X139656208Y-118764004D01*
X139799469Y-118720547D01*
X139931498Y-118649975D01*
X140047223Y-118555002D01*
X140071026Y-118525998D01*
X140826760Y-117770264D01*
X140842366Y-117821709D01*
X140956758Y-118035718D01*
X141110702Y-118223299D01*
X141298283Y-118377243D01*
X141512292Y-118491634D01*
X141744506Y-118562075D01*
X141986000Y-118585860D01*
X142227495Y-118562075D01*
X142459709Y-118491634D01*
X142673718Y-118377243D01*
X142836901Y-118243322D01*
X143000083Y-118377243D01*
X143214092Y-118491634D01*
X143446306Y-118562075D01*
X143687800Y-118585860D01*
X143929295Y-118562075D01*
X144161509Y-118491634D01*
X144375518Y-118377243D01*
X144540589Y-118241773D01*
X144608317Y-118308887D01*
X144810789Y-118442845D01*
X145035504Y-118534728D01*
X145072479Y-118538383D01*
X145262600Y-118413609D01*
X145262600Y-117221000D01*
X145242600Y-117221000D01*
X145242600Y-116967000D01*
X145262600Y-116967000D01*
X145262600Y-116947000D01*
X145516600Y-116947000D01*
X145516600Y-116967000D01*
X145536600Y-116967000D01*
X145536600Y-117221000D01*
X145516600Y-117221000D01*
X145516600Y-118413609D01*
X145706721Y-118538383D01*
X145743696Y-118534728D01*
X145968411Y-118442845D01*
X146170883Y-118308887D01*
X146238612Y-118241772D01*
X146403683Y-118377243D01*
X146617692Y-118491634D01*
X146849906Y-118562075D01*
X147091400Y-118585860D01*
X147332895Y-118562075D01*
X147565109Y-118491634D01*
X147779118Y-118377243D01*
X147942301Y-118243322D01*
X148105483Y-118377243D01*
X148319492Y-118491634D01*
X148551706Y-118562075D01*
X148793200Y-118585860D01*
X149034695Y-118562075D01*
X149266909Y-118491634D01*
X149480918Y-118377243D01*
X149668499Y-118223299D01*
X149822443Y-118035718D01*
X149936834Y-117821708D01*
X150007275Y-117589494D01*
X150025100Y-117408512D01*
X150025100Y-116779487D01*
X150015113Y-116678090D01*
X155266287Y-116678090D01*
X157128759Y-118540563D01*
G36*
X168772525Y-105594632D02*
G01*
X168979368Y-105801475D01*
X169161534Y-105923195D01*
X169044645Y-105992822D01*
X168828412Y-106187731D01*
X168654359Y-106421080D01*
X168529175Y-106683901D01*
X168484524Y-106831110D01*
X168605845Y-107061000D01*
X169799000Y-107061000D01*
X169799000Y-107041000D01*
X170053000Y-107041000D01*
X170053000Y-107061000D01*
X170073000Y-107061000D01*
X170073000Y-107315000D01*
X170053000Y-107315000D01*
X170053000Y-107335000D01*
X169799000Y-107335000D01*
X169799000Y-107315000D01*
X168605845Y-107315000D01*
X168484524Y-107544890D01*
X168529175Y-107692099D01*
X168654359Y-107954920D01*
X168828412Y-108188269D01*
X169044645Y-108383178D01*
X169161534Y-108452805D01*
X168979368Y-108574525D01*
X168772525Y-108781368D01*
X168610010Y-109024589D01*
X168498068Y-109294842D01*
X168441000Y-109581740D01*
X168441000Y-109874260D01*
X168498068Y-110161158D01*
X168610010Y-110431411D01*
X168772525Y-110674632D01*
X168979368Y-110881475D01*
X169153760Y-110998000D01*
X168979368Y-111114525D01*
X168772525Y-111321368D01*
X168610010Y-111564589D01*
X168498068Y-111834842D01*
X168441000Y-112121740D01*
X168441000Y-112414260D01*
X168498068Y-112701158D01*
X168610010Y-112971411D01*
X168772525Y-113214632D01*
X168979368Y-113421475D01*
X169153760Y-113538000D01*
X168979368Y-113654525D01*
X168772525Y-113861368D01*
X168610010Y-114104589D01*
X168498068Y-114374842D01*
X168441000Y-114661740D01*
X168441000Y-114954260D01*
X168498068Y-115241158D01*
X168610010Y-115511411D01*
X168772525Y-115754632D01*
X168979368Y-115961475D01*
X169153760Y-116078000D01*
X168979368Y-116194525D01*
X168772525Y-116401368D01*
X168610010Y-116644589D01*
X168498068Y-116914842D01*
X168441000Y-117201740D01*
X168441000Y-117484101D01*
X168410985Y-117474996D01*
X168299332Y-117463999D01*
X168299321Y-117463999D01*
X168261999Y-117460323D01*
X168224677Y-117463999D01*
X158201799Y-117463999D01*
X157384909Y-116647110D01*
X157421411Y-116631990D01*
X157664632Y-116469475D01*
X157796487Y-116337620D01*
X157818498Y-116410180D01*
X157877463Y-116520494D01*
X157956815Y-116617185D01*
X158053506Y-116696537D01*
X158163820Y-116755502D01*
X158283518Y-116791812D01*
X158408000Y-116804072D01*
X160108000Y-116804072D01*
X160232482Y-116791812D01*
X160352180Y-116755502D01*
X160462494Y-116696537D01*
X160559185Y-116617185D01*
X160638537Y-116520494D01*
X160697502Y-116410180D01*
X160733812Y-116290482D01*
X160746072Y-116166000D01*
X160746072Y-116076000D01*
X165570678Y-116076000D01*
X165608000Y-116079676D01*
X165645322Y-116076000D01*
X165645333Y-116076000D01*
X165756986Y-116065003D01*
X165900247Y-116021546D01*
X166032276Y-115950974D01*
X166148001Y-115856001D01*
X166171804Y-115826997D01*
X167389004Y-114609798D01*
X167418001Y-114586001D01*
X167512974Y-114470276D01*
X167583546Y-114338247D01*
X167627003Y-114194986D01*
X167638000Y-114083333D01*
X167638000Y-114083324D01*
X167641676Y-114046001D01*
X167638000Y-114008678D01*
X167638000Y-107129711D01*
X167681937Y-107085774D01*
X167795205Y-106916256D01*
X167873226Y-106727898D01*
X167913000Y-106527939D01*
X167913000Y-106324061D01*
X167873226Y-106124102D01*
X167795205Y-105935744D01*
X167681937Y-105766226D01*
X167537774Y-105622063D01*
X167368256Y-105508795D01*
X167179898Y-105430774D01*
X167065404Y-105408000D01*
X168647822Y-105408000D01*
X168772525Y-105594632D01*
G37*
X168772525Y-105594632D02*
X168979368Y-105801475D01*
X169161534Y-105923195D01*
X169044645Y-105992822D01*
X168828412Y-106187731D01*
X168654359Y-106421080D01*
X168529175Y-106683901D01*
X168484524Y-106831110D01*
X168605845Y-107061000D01*
X169799000Y-107061000D01*
X169799000Y-107041000D01*
X170053000Y-107041000D01*
X170053000Y-107061000D01*
X170073000Y-107061000D01*
X170073000Y-107315000D01*
X170053000Y-107315000D01*
X170053000Y-107335000D01*
X169799000Y-107335000D01*
X169799000Y-107315000D01*
X168605845Y-107315000D01*
X168484524Y-107544890D01*
X168529175Y-107692099D01*
X168654359Y-107954920D01*
X168828412Y-108188269D01*
X169044645Y-108383178D01*
X169161534Y-108452805D01*
X168979368Y-108574525D01*
X168772525Y-108781368D01*
X168610010Y-109024589D01*
X168498068Y-109294842D01*
X168441000Y-109581740D01*
X168441000Y-109874260D01*
X168498068Y-110161158D01*
X168610010Y-110431411D01*
X168772525Y-110674632D01*
X168979368Y-110881475D01*
X169153760Y-110998000D01*
X168979368Y-111114525D01*
X168772525Y-111321368D01*
X168610010Y-111564589D01*
X168498068Y-111834842D01*
X168441000Y-112121740D01*
X168441000Y-112414260D01*
X168498068Y-112701158D01*
X168610010Y-112971411D01*
X168772525Y-113214632D01*
X168979368Y-113421475D01*
X169153760Y-113538000D01*
X168979368Y-113654525D01*
X168772525Y-113861368D01*
X168610010Y-114104589D01*
X168498068Y-114374842D01*
X168441000Y-114661740D01*
X168441000Y-114954260D01*
X168498068Y-115241158D01*
X168610010Y-115511411D01*
X168772525Y-115754632D01*
X168979368Y-115961475D01*
X169153760Y-116078000D01*
X168979368Y-116194525D01*
X168772525Y-116401368D01*
X168610010Y-116644589D01*
X168498068Y-116914842D01*
X168441000Y-117201740D01*
X168441000Y-117484101D01*
X168410985Y-117474996D01*
X168299332Y-117463999D01*
X168299321Y-117463999D01*
X168261999Y-117460323D01*
X168224677Y-117463999D01*
X158201799Y-117463999D01*
X157384909Y-116647110D01*
X157421411Y-116631990D01*
X157664632Y-116469475D01*
X157796487Y-116337620D01*
X157818498Y-116410180D01*
X157877463Y-116520494D01*
X157956815Y-116617185D01*
X158053506Y-116696537D01*
X158163820Y-116755502D01*
X158283518Y-116791812D01*
X158408000Y-116804072D01*
X160108000Y-116804072D01*
X160232482Y-116791812D01*
X160352180Y-116755502D01*
X160462494Y-116696537D01*
X160559185Y-116617185D01*
X160638537Y-116520494D01*
X160697502Y-116410180D01*
X160733812Y-116290482D01*
X160746072Y-116166000D01*
X160746072Y-116076000D01*
X165570678Y-116076000D01*
X165608000Y-116079676D01*
X165645322Y-116076000D01*
X165645333Y-116076000D01*
X165756986Y-116065003D01*
X165900247Y-116021546D01*
X166032276Y-115950974D01*
X166148001Y-115856001D01*
X166171804Y-115826997D01*
X167389004Y-114609798D01*
X167418001Y-114586001D01*
X167512974Y-114470276D01*
X167583546Y-114338247D01*
X167627003Y-114194986D01*
X167638000Y-114083333D01*
X167638000Y-114083324D01*
X167641676Y-114046001D01*
X167638000Y-114008678D01*
X167638000Y-107129711D01*
X167681937Y-107085774D01*
X167795205Y-106916256D01*
X167873226Y-106727898D01*
X167913000Y-106527939D01*
X167913000Y-106324061D01*
X167873226Y-106124102D01*
X167795205Y-105935744D01*
X167681937Y-105766226D01*
X167537774Y-105622063D01*
X167368256Y-105508795D01*
X167179898Y-105430774D01*
X167065404Y-105408000D01*
X168647822Y-105408000D01*
X168772525Y-105594632D01*
G36*
X153972052Y-114406855D02*
G01*
X153995846Y-114435848D01*
X154024839Y-114459642D01*
X154024843Y-114459646D01*
X154095532Y-114517658D01*
X154111571Y-114530821D01*
X154243600Y-114601393D01*
X154386861Y-114644850D01*
X154498514Y-114655847D01*
X154498523Y-114655847D01*
X154535846Y-114659523D01*
X154573169Y-114655847D01*
X155384092Y-114655847D01*
X155290068Y-114882842D01*
X155235317Y-115158090D01*
X141641456Y-115158090D01*
X141604133Y-115154414D01*
X141566810Y-115158090D01*
X141566800Y-115158090D01*
X141455147Y-115169087D01*
X141311886Y-115212544D01*
X141179856Y-115283116D01*
X141096216Y-115351758D01*
X141064132Y-115378089D01*
X141040334Y-115407087D01*
X139192421Y-117255001D01*
X136043850Y-117255001D01*
X136061476Y-117196890D01*
X135940155Y-116967000D01*
X134747000Y-116967000D01*
X134747000Y-116987000D01*
X134493000Y-116987000D01*
X134493000Y-116967000D01*
X134473000Y-116967000D01*
X134473000Y-116713000D01*
X134493000Y-116713000D01*
X134493000Y-116693000D01*
X134747000Y-116693000D01*
X134747000Y-116713000D01*
X135940155Y-116713000D01*
X136061476Y-116483110D01*
X136016825Y-116335901D01*
X135891641Y-116073080D01*
X135717588Y-115839731D01*
X135501355Y-115644822D01*
X135384466Y-115575195D01*
X135566632Y-115453475D01*
X135773475Y-115246632D01*
X135935990Y-115003411D01*
X136047932Y-114733158D01*
X136105000Y-114446260D01*
X136105000Y-114153740D01*
X136047932Y-113866842D01*
X135976753Y-113695001D01*
X153260200Y-113695001D01*
X153972052Y-114406855D01*
G37*
X153972052Y-114406855D02*
X153995846Y-114435848D01*
X154024839Y-114459642D01*
X154024843Y-114459646D01*
X154095532Y-114517658D01*
X154111571Y-114530821D01*
X154243600Y-114601393D01*
X154386861Y-114644850D01*
X154498514Y-114655847D01*
X154498523Y-114655847D01*
X154535846Y-114659523D01*
X154573169Y-114655847D01*
X155384092Y-114655847D01*
X155290068Y-114882842D01*
X155235317Y-115158090D01*
X141641456Y-115158090D01*
X141604133Y-115154414D01*
X141566810Y-115158090D01*
X141566800Y-115158090D01*
X141455147Y-115169087D01*
X141311886Y-115212544D01*
X141179856Y-115283116D01*
X141096216Y-115351758D01*
X141064132Y-115378089D01*
X141040334Y-115407087D01*
X139192421Y-117255001D01*
X136043850Y-117255001D01*
X136061476Y-117196890D01*
X135940155Y-116967000D01*
X134747000Y-116967000D01*
X134747000Y-116987000D01*
X134493000Y-116987000D01*
X134493000Y-116967000D01*
X134473000Y-116967000D01*
X134473000Y-116713000D01*
X134493000Y-116713000D01*
X134493000Y-116693000D01*
X134747000Y-116693000D01*
X134747000Y-116713000D01*
X135940155Y-116713000D01*
X136061476Y-116483110D01*
X136016825Y-116335901D01*
X135891641Y-116073080D01*
X135717588Y-115839731D01*
X135501355Y-115644822D01*
X135384466Y-115575195D01*
X135566632Y-115453475D01*
X135773475Y-115246632D01*
X135935990Y-115003411D01*
X136047932Y-114733158D01*
X136105000Y-114446260D01*
X136105000Y-114153740D01*
X136047932Y-113866842D01*
X135976753Y-113695001D01*
X153260200Y-113695001D01*
X153972052Y-114406855D01*
G36*
X136049203Y-97285003D02*
G01*
X136073001Y-97314001D01*
X136101999Y-97337799D01*
X136188726Y-97408974D01*
X136320755Y-97479546D01*
X136464016Y-97523003D01*
X136613002Y-97537677D01*
X136650335Y-97534000D01*
X144009822Y-97534000D01*
X144134525Y-97720632D01*
X144341368Y-97927475D01*
X144515760Y-98044000D01*
X144341368Y-98160525D01*
X144134525Y-98367368D01*
X143972010Y-98610589D01*
X143860068Y-98880842D01*
X143803000Y-99167740D01*
X143803000Y-99460260D01*
X143860068Y-99747158D01*
X143972010Y-100017411D01*
X144134525Y-100260632D01*
X144341368Y-100467475D01*
X144448459Y-100539031D01*
X144433263Y-100554227D01*
X144319995Y-100723745D01*
X144241974Y-100912103D01*
X144202200Y-101112062D01*
X144202200Y-101315940D01*
X144241974Y-101515899D01*
X144319995Y-101704257D01*
X144433263Y-101873775D01*
X144577426Y-102017938D01*
X144746944Y-102131206D01*
X144935302Y-102209227D01*
X145135261Y-102249001D01*
X145339139Y-102249001D01*
X145539098Y-102209227D01*
X145727456Y-102131206D01*
X145896974Y-102017938D01*
X146041137Y-101873775D01*
X146154405Y-101704257D01*
X146232426Y-101515899D01*
X146272200Y-101315940D01*
X146272200Y-101112062D01*
X146232426Y-100912103D01*
X146154405Y-100723745D01*
X146060787Y-100583635D01*
X146234632Y-100467475D01*
X146441475Y-100260632D01*
X146603990Y-100017411D01*
X146715932Y-99747158D01*
X146751839Y-99566641D01*
X152344200Y-105159002D01*
X152367999Y-105188001D01*
X152396997Y-105211799D01*
X152483723Y-105282974D01*
X152538023Y-105311998D01*
X152615753Y-105353546D01*
X152759014Y-105397003D01*
X152870667Y-105408000D01*
X152870677Y-105408000D01*
X152908000Y-105411676D01*
X152945322Y-105408000D01*
X166690596Y-105408000D01*
X166576102Y-105430774D01*
X166387744Y-105508795D01*
X166218226Y-105622063D01*
X166074063Y-105766226D01*
X165960795Y-105935744D01*
X165882774Y-106124102D01*
X165843000Y-106324061D01*
X165843000Y-106527939D01*
X165882774Y-106727898D01*
X165960795Y-106916256D01*
X166074063Y-107085774D01*
X166118001Y-107129712D01*
X166118000Y-112863475D01*
X166104786Y-112860847D01*
X165900908Y-112860847D01*
X165700949Y-112900621D01*
X165512591Y-112978642D01*
X165343073Y-113091910D01*
X165299136Y-113135847D01*
X154850650Y-113135847D01*
X154138804Y-112424003D01*
X154115002Y-112395000D01*
X153999277Y-112300027D01*
X153867248Y-112229455D01*
X153723987Y-112185998D01*
X153612334Y-112175001D01*
X153612323Y-112175001D01*
X153575001Y-112171325D01*
X153537679Y-112175001D01*
X136043850Y-112175001D01*
X136061476Y-112116890D01*
X135940155Y-111887000D01*
X134747000Y-111887000D01*
X134747000Y-111907000D01*
X134493000Y-111907000D01*
X134493000Y-111887000D01*
X134473000Y-111887000D01*
X134473000Y-111633000D01*
X134493000Y-111633000D01*
X134493000Y-111613000D01*
X134747000Y-111613000D01*
X134747000Y-111633000D01*
X135940155Y-111633000D01*
X136061476Y-111403110D01*
X136016825Y-111255901D01*
X135891641Y-110993080D01*
X135717588Y-110759731D01*
X135501355Y-110564822D01*
X135384466Y-110495195D01*
X135566632Y-110373475D01*
X135773475Y-110166632D01*
X135935990Y-109923411D01*
X136047932Y-109653158D01*
X136105000Y-109366260D01*
X136105000Y-109073740D01*
X136090147Y-108999069D01*
X147616854Y-108999069D01*
X147616854Y-109440931D01*
X147703056Y-109874302D01*
X147872149Y-110282528D01*
X148117634Y-110649922D01*
X148430078Y-110962366D01*
X148797472Y-111207851D01*
X149205698Y-111376944D01*
X149639069Y-111463146D01*
X150080931Y-111463146D01*
X150514302Y-111376944D01*
X150922528Y-111207851D01*
X151289922Y-110962366D01*
X151602366Y-110649922D01*
X151847851Y-110282528D01*
X152016944Y-109874302D01*
X152103146Y-109440931D01*
X152103146Y-108999069D01*
X152016944Y-108565698D01*
X151847851Y-108157472D01*
X151602366Y-107790078D01*
X151289922Y-107477634D01*
X150922528Y-107232149D01*
X150514302Y-107063056D01*
X150080931Y-106976854D01*
X149639069Y-106976854D01*
X149205698Y-107063056D01*
X148797472Y-107232149D01*
X148430078Y-107477634D01*
X148117634Y-107790078D01*
X147872149Y-108157472D01*
X147703056Y-108565698D01*
X147616854Y-108999069D01*
X136090147Y-108999069D01*
X136047932Y-108786842D01*
X135935990Y-108516589D01*
X135773475Y-108273368D01*
X135566632Y-108066525D01*
X135392240Y-107950000D01*
X135566632Y-107833475D01*
X135773475Y-107626632D01*
X135935990Y-107383411D01*
X136047932Y-107113158D01*
X136105000Y-106826260D01*
X136105000Y-106533740D01*
X136047932Y-106246842D01*
X135935990Y-105976589D01*
X135773475Y-105733368D01*
X135566632Y-105526525D01*
X135392240Y-105410000D01*
X135566632Y-105293475D01*
X135773475Y-105086632D01*
X135935990Y-104843411D01*
X136047932Y-104573158D01*
X136105000Y-104286260D01*
X136105000Y-103993740D01*
X136047932Y-103706842D01*
X135935990Y-103436589D01*
X135773475Y-103193368D01*
X135566632Y-102986525D01*
X135392240Y-102870000D01*
X135566632Y-102753475D01*
X135773475Y-102546632D01*
X135935990Y-102303411D01*
X136047932Y-102033158D01*
X136105000Y-101746260D01*
X136105000Y-101453740D01*
X136047932Y-101166842D01*
X135935990Y-100896589D01*
X135773475Y-100653368D01*
X135566632Y-100446525D01*
X135384466Y-100324805D01*
X135501355Y-100255178D01*
X135717588Y-100060269D01*
X135829672Y-99910000D01*
X136941928Y-99910000D01*
X136954188Y-100034482D01*
X136990498Y-100154180D01*
X137049463Y-100264494D01*
X137128815Y-100361185D01*
X137225506Y-100440537D01*
X137335820Y-100499502D01*
X137408380Y-100521513D01*
X137276525Y-100653368D01*
X137114010Y-100896589D01*
X137002068Y-101166842D01*
X136945000Y-101453740D01*
X136945000Y-101746260D01*
X137002068Y-102033158D01*
X137114010Y-102303411D01*
X137276525Y-102546632D01*
X137483368Y-102753475D01*
X137726589Y-102915990D01*
X137996842Y-103027932D01*
X138283740Y-103085000D01*
X138576260Y-103085000D01*
X138863158Y-103027932D01*
X139133411Y-102915990D01*
X139376632Y-102753475D01*
X139583475Y-102546632D01*
X139745990Y-102303411D01*
X139857932Y-102033158D01*
X139915000Y-101746260D01*
X139915000Y-101453740D01*
X139857932Y-101166842D01*
X139745990Y-100896589D01*
X139583475Y-100653368D01*
X139451620Y-100521513D01*
X139524180Y-100499502D01*
X139634494Y-100440537D01*
X139731185Y-100361185D01*
X139810537Y-100264494D01*
X139869502Y-100154180D01*
X139905812Y-100034482D01*
X139918072Y-99910000D01*
X139915000Y-99345750D01*
X139756250Y-99187000D01*
X138557000Y-99187000D01*
X138557000Y-99207000D01*
X138303000Y-99207000D01*
X138303000Y-99187000D01*
X137103750Y-99187000D01*
X136945000Y-99345750D01*
X136941928Y-99910000D01*
X135829672Y-99910000D01*
X135891641Y-99826920D01*
X136016825Y-99564099D01*
X136061476Y-99416890D01*
X135940155Y-99187000D01*
X134747000Y-99187000D01*
X134747000Y-99207000D01*
X134493000Y-99207000D01*
X134493000Y-99187000D01*
X134473000Y-99187000D01*
X134473000Y-98933000D01*
X134493000Y-98933000D01*
X134493000Y-98913000D01*
X134747000Y-98913000D01*
X134747000Y-98933000D01*
X135940155Y-98933000D01*
X136061476Y-98703110D01*
X136016825Y-98555901D01*
X135891641Y-98293080D01*
X135829673Y-98210000D01*
X136941928Y-98210000D01*
X136945000Y-98774250D01*
X137103750Y-98933000D01*
X138303000Y-98933000D01*
X138303000Y-97733750D01*
X138557000Y-97733750D01*
X138557000Y-98933000D01*
X139756250Y-98933000D01*
X139915000Y-98774250D01*
X139918072Y-98210000D01*
X139905812Y-98085518D01*
X139869502Y-97965820D01*
X139810537Y-97855506D01*
X139731185Y-97758815D01*
X139634494Y-97679463D01*
X139524180Y-97620498D01*
X139404482Y-97584188D01*
X139280000Y-97571928D01*
X138715750Y-97575000D01*
X138557000Y-97733750D01*
X138303000Y-97733750D01*
X138144250Y-97575000D01*
X137580000Y-97571928D01*
X137455518Y-97584188D01*
X137335820Y-97620498D01*
X137225506Y-97679463D01*
X137128815Y-97758815D01*
X137049463Y-97855506D01*
X136990498Y-97965820D01*
X136954188Y-98085518D01*
X136941928Y-98210000D01*
X135829673Y-98210000D01*
X135717588Y-98059731D01*
X135501355Y-97864822D01*
X135384466Y-97795195D01*
X135566632Y-97673475D01*
X135773475Y-97466632D01*
X135935990Y-97223411D01*
X135951109Y-97186909D01*
X136049203Y-97285003D01*
G37*
X136049203Y-97285003D02*
X136073001Y-97314001D01*
X136101999Y-97337799D01*
X136188726Y-97408974D01*
X136320755Y-97479546D01*
X136464016Y-97523003D01*
X136613002Y-97537677D01*
X136650335Y-97534000D01*
X144009822Y-97534000D01*
X144134525Y-97720632D01*
X144341368Y-97927475D01*
X144515760Y-98044000D01*
X144341368Y-98160525D01*
X144134525Y-98367368D01*
X143972010Y-98610589D01*
X143860068Y-98880842D01*
X143803000Y-99167740D01*
X143803000Y-99460260D01*
X143860068Y-99747158D01*
X143972010Y-100017411D01*
X144134525Y-100260632D01*
X144341368Y-100467475D01*
X144448459Y-100539031D01*
X144433263Y-100554227D01*
X144319995Y-100723745D01*
X144241974Y-100912103D01*
X144202200Y-101112062D01*
X144202200Y-101315940D01*
X144241974Y-101515899D01*
X144319995Y-101704257D01*
X144433263Y-101873775D01*
X144577426Y-102017938D01*
X144746944Y-102131206D01*
X144935302Y-102209227D01*
X145135261Y-102249001D01*
X145339139Y-102249001D01*
X145539098Y-102209227D01*
X145727456Y-102131206D01*
X145896974Y-102017938D01*
X146041137Y-101873775D01*
X146154405Y-101704257D01*
X146232426Y-101515899D01*
X146272200Y-101315940D01*
X146272200Y-101112062D01*
X146232426Y-100912103D01*
X146154405Y-100723745D01*
X146060787Y-100583635D01*
X146234632Y-100467475D01*
X146441475Y-100260632D01*
X146603990Y-100017411D01*
X146715932Y-99747158D01*
X146751839Y-99566641D01*
X152344200Y-105159002D01*
X152367999Y-105188001D01*
X152396997Y-105211799D01*
X152483723Y-105282974D01*
X152538023Y-105311998D01*
X152615753Y-105353546D01*
X152759014Y-105397003D01*
X152870667Y-105408000D01*
X152870677Y-105408000D01*
X152908000Y-105411676D01*
X152945322Y-105408000D01*
X166690596Y-105408000D01*
X166576102Y-105430774D01*
X166387744Y-105508795D01*
X166218226Y-105622063D01*
X166074063Y-105766226D01*
X165960795Y-105935744D01*
X165882774Y-106124102D01*
X165843000Y-106324061D01*
X165843000Y-106527939D01*
X165882774Y-106727898D01*
X165960795Y-106916256D01*
X166074063Y-107085774D01*
X166118001Y-107129712D01*
X166118000Y-112863475D01*
X166104786Y-112860847D01*
X165900908Y-112860847D01*
X165700949Y-112900621D01*
X165512591Y-112978642D01*
X165343073Y-113091910D01*
X165299136Y-113135847D01*
X154850650Y-113135847D01*
X154138804Y-112424003D01*
X154115002Y-112395000D01*
X153999277Y-112300027D01*
X153867248Y-112229455D01*
X153723987Y-112185998D01*
X153612334Y-112175001D01*
X153612323Y-112175001D01*
X153575001Y-112171325D01*
X153537679Y-112175001D01*
X136043850Y-112175001D01*
X136061476Y-112116890D01*
X135940155Y-111887000D01*
X134747000Y-111887000D01*
X134747000Y-111907000D01*
X134493000Y-111907000D01*
X134493000Y-111887000D01*
X134473000Y-111887000D01*
X134473000Y-111633000D01*
X134493000Y-111633000D01*
X134493000Y-111613000D01*
X134747000Y-111613000D01*
X134747000Y-111633000D01*
X135940155Y-111633000D01*
X136061476Y-111403110D01*
X136016825Y-111255901D01*
X135891641Y-110993080D01*
X135717588Y-110759731D01*
X135501355Y-110564822D01*
X135384466Y-110495195D01*
X135566632Y-110373475D01*
X135773475Y-110166632D01*
X135935990Y-109923411D01*
X136047932Y-109653158D01*
X136105000Y-109366260D01*
X136105000Y-109073740D01*
X136090147Y-108999069D01*
X147616854Y-108999069D01*
X147616854Y-109440931D01*
X147703056Y-109874302D01*
X147872149Y-110282528D01*
X148117634Y-110649922D01*
X148430078Y-110962366D01*
X148797472Y-111207851D01*
X149205698Y-111376944D01*
X149639069Y-111463146D01*
X150080931Y-111463146D01*
X150514302Y-111376944D01*
X150922528Y-111207851D01*
X151289922Y-110962366D01*
X151602366Y-110649922D01*
X151847851Y-110282528D01*
X152016944Y-109874302D01*
X152103146Y-109440931D01*
X152103146Y-108999069D01*
X152016944Y-108565698D01*
X151847851Y-108157472D01*
X151602366Y-107790078D01*
X151289922Y-107477634D01*
X150922528Y-107232149D01*
X150514302Y-107063056D01*
X150080931Y-106976854D01*
X149639069Y-106976854D01*
X149205698Y-107063056D01*
X148797472Y-107232149D01*
X148430078Y-107477634D01*
X148117634Y-107790078D01*
X147872149Y-108157472D01*
X147703056Y-108565698D01*
X147616854Y-108999069D01*
X136090147Y-108999069D01*
X136047932Y-108786842D01*
X135935990Y-108516589D01*
X135773475Y-108273368D01*
X135566632Y-108066525D01*
X135392240Y-107950000D01*
X135566632Y-107833475D01*
X135773475Y-107626632D01*
X135935990Y-107383411D01*
X136047932Y-107113158D01*
X136105000Y-106826260D01*
X136105000Y-106533740D01*
X136047932Y-106246842D01*
X135935990Y-105976589D01*
X135773475Y-105733368D01*
X135566632Y-105526525D01*
X135392240Y-105410000D01*
X135566632Y-105293475D01*
X135773475Y-105086632D01*
X135935990Y-104843411D01*
X136047932Y-104573158D01*
X136105000Y-104286260D01*
X136105000Y-103993740D01*
X136047932Y-103706842D01*
X135935990Y-103436589D01*
X135773475Y-103193368D01*
X135566632Y-102986525D01*
X135392240Y-102870000D01*
X135566632Y-102753475D01*
X135773475Y-102546632D01*
X135935990Y-102303411D01*
X136047932Y-102033158D01*
X136105000Y-101746260D01*
X136105000Y-101453740D01*
X136047932Y-101166842D01*
X135935990Y-100896589D01*
X135773475Y-100653368D01*
X135566632Y-100446525D01*
X135384466Y-100324805D01*
X135501355Y-100255178D01*
X135717588Y-100060269D01*
X135829672Y-99910000D01*
X136941928Y-99910000D01*
X136954188Y-100034482D01*
X136990498Y-100154180D01*
X137049463Y-100264494D01*
X137128815Y-100361185D01*
X137225506Y-100440537D01*
X137335820Y-100499502D01*
X137408380Y-100521513D01*
X137276525Y-100653368D01*
X137114010Y-100896589D01*
X137002068Y-101166842D01*
X136945000Y-101453740D01*
X136945000Y-101746260D01*
X137002068Y-102033158D01*
X137114010Y-102303411D01*
X137276525Y-102546632D01*
X137483368Y-102753475D01*
X137726589Y-102915990D01*
X137996842Y-103027932D01*
X138283740Y-103085000D01*
X138576260Y-103085000D01*
X138863158Y-103027932D01*
X139133411Y-102915990D01*
X139376632Y-102753475D01*
X139583475Y-102546632D01*
X139745990Y-102303411D01*
X139857932Y-102033158D01*
X139915000Y-101746260D01*
X139915000Y-101453740D01*
X139857932Y-101166842D01*
X139745990Y-100896589D01*
X139583475Y-100653368D01*
X139451620Y-100521513D01*
X139524180Y-100499502D01*
X139634494Y-100440537D01*
X139731185Y-100361185D01*
X139810537Y-100264494D01*
X139869502Y-100154180D01*
X139905812Y-100034482D01*
X139918072Y-99910000D01*
X139915000Y-99345750D01*
X139756250Y-99187000D01*
X138557000Y-99187000D01*
X138557000Y-99207000D01*
X138303000Y-99207000D01*
X138303000Y-99187000D01*
X137103750Y-99187000D01*
X136945000Y-99345750D01*
X136941928Y-99910000D01*
X135829672Y-99910000D01*
X135891641Y-99826920D01*
X136016825Y-99564099D01*
X136061476Y-99416890D01*
X135940155Y-99187000D01*
X134747000Y-99187000D01*
X134747000Y-99207000D01*
X134493000Y-99207000D01*
X134493000Y-99187000D01*
X134473000Y-99187000D01*
X134473000Y-98933000D01*
X134493000Y-98933000D01*
X134493000Y-98913000D01*
X134747000Y-98913000D01*
X134747000Y-98933000D01*
X135940155Y-98933000D01*
X136061476Y-98703110D01*
X136016825Y-98555901D01*
X135891641Y-98293080D01*
X135829673Y-98210000D01*
X136941928Y-98210000D01*
X136945000Y-98774250D01*
X137103750Y-98933000D01*
X138303000Y-98933000D01*
X138303000Y-97733750D01*
X138557000Y-97733750D01*
X138557000Y-98933000D01*
X139756250Y-98933000D01*
X139915000Y-98774250D01*
X139918072Y-98210000D01*
X139905812Y-98085518D01*
X139869502Y-97965820D01*
X139810537Y-97855506D01*
X139731185Y-97758815D01*
X139634494Y-97679463D01*
X139524180Y-97620498D01*
X139404482Y-97584188D01*
X139280000Y-97571928D01*
X138715750Y-97575000D01*
X138557000Y-97733750D01*
X138303000Y-97733750D01*
X138144250Y-97575000D01*
X137580000Y-97571928D01*
X137455518Y-97584188D01*
X137335820Y-97620498D01*
X137225506Y-97679463D01*
X137128815Y-97758815D01*
X137049463Y-97855506D01*
X136990498Y-97965820D01*
X136954188Y-98085518D01*
X136941928Y-98210000D01*
X135829673Y-98210000D01*
X135717588Y-98059731D01*
X135501355Y-97864822D01*
X135384466Y-97795195D01*
X135566632Y-97673475D01*
X135773475Y-97466632D01*
X135935990Y-97223411D01*
X135951109Y-97186909D01*
X136049203Y-97285003D01*
G36*
X133466525Y-110166632D02*
G01*
X133673368Y-110373475D01*
X133855534Y-110495195D01*
X133738645Y-110564822D01*
X133522412Y-110759731D01*
X133351100Y-110989406D01*
X133233475Y-110813368D01*
X133026632Y-110606525D01*
X132852240Y-110490000D01*
X133026632Y-110373475D01*
X133233475Y-110166632D01*
X133350000Y-109992240D01*
X133466525Y-110166632D01*
G37*
X133466525Y-110166632D02*
X133673368Y-110373475D01*
X133855534Y-110495195D01*
X133738645Y-110564822D01*
X133522412Y-110759731D01*
X133351100Y-110989406D01*
X133233475Y-110813368D01*
X133026632Y-110606525D01*
X132852240Y-110490000D01*
X133026632Y-110373475D01*
X133233475Y-110166632D01*
X133350000Y-109992240D01*
X133466525Y-110166632D01*
G36*
X133466525Y-107626632D02*
G01*
X133673368Y-107833475D01*
X133847760Y-107950000D01*
X133673368Y-108066525D01*
X133466525Y-108273368D01*
X133350000Y-108447760D01*
X133233475Y-108273368D01*
X133026632Y-108066525D01*
X132844466Y-107944805D01*
X132961355Y-107875178D01*
X133177588Y-107680269D01*
X133348900Y-107450594D01*
X133466525Y-107626632D01*
G37*
X133466525Y-107626632D02*
X133673368Y-107833475D01*
X133847760Y-107950000D01*
X133673368Y-108066525D01*
X133466525Y-108273368D01*
X133350000Y-108447760D01*
X133233475Y-108273368D01*
X133026632Y-108066525D01*
X132844466Y-107944805D01*
X132961355Y-107875178D01*
X133177588Y-107680269D01*
X133348900Y-107450594D01*
X133466525Y-107626632D01*
G36*
X178252205Y-80521008D02*
G01*
X178275999Y-80550001D01*
X178304992Y-80573795D01*
X178304996Y-80573799D01*
X178375685Y-80631811D01*
X178391724Y-80644974D01*
X178523753Y-80715546D01*
X178667014Y-80759003D01*
X178778667Y-80770000D01*
X178778676Y-80770000D01*
X178815999Y-80773676D01*
X178853322Y-80770000D01*
X179061822Y-80770000D01*
X179186525Y-80956632D01*
X179393368Y-81163475D01*
X179575534Y-81285195D01*
X179458645Y-81354822D01*
X179242412Y-81549731D01*
X179068359Y-81783080D01*
X178943175Y-82045901D01*
X178898524Y-82193110D01*
X179019845Y-82423000D01*
X180213000Y-82423000D01*
X180213000Y-82403000D01*
X180467000Y-82403000D01*
X180467000Y-82423000D01*
X180487000Y-82423000D01*
X180487000Y-82677000D01*
X180467000Y-82677000D01*
X180467000Y-82697000D01*
X180213000Y-82697000D01*
X180213000Y-82677000D01*
X179019845Y-82677000D01*
X178898524Y-82906890D01*
X178943175Y-83054099D01*
X179068359Y-83316920D01*
X179242412Y-83550269D01*
X179458645Y-83745178D01*
X179575534Y-83814805D01*
X179393368Y-83936525D01*
X179186525Y-84143368D01*
X179024010Y-84386589D01*
X178912068Y-84656842D01*
X178855000Y-84943740D01*
X178855000Y-85236260D01*
X178912068Y-85523158D01*
X179024010Y-85793411D01*
X179186525Y-86036632D01*
X179186892Y-86036999D01*
X170796323Y-86036999D01*
X170759000Y-86033323D01*
X170721677Y-86036999D01*
X170721668Y-86036999D01*
X170610015Y-86047996D01*
X170466754Y-86091453D01*
X170334725Y-86162025D01*
X170219000Y-86256998D01*
X170195202Y-86285996D01*
X168690775Y-87790423D01*
X168566189Y-87489644D01*
X168357710Y-87177634D01*
X168092366Y-86912290D01*
X167780356Y-86703811D01*
X167433668Y-86560209D01*
X167065626Y-86487000D01*
X166690374Y-86487000D01*
X166322332Y-86560209D01*
X165975644Y-86703811D01*
X165663634Y-86912290D01*
X165398290Y-87177634D01*
X165189811Y-87489644D01*
X165046209Y-87836332D01*
X164973000Y-88204374D01*
X164973000Y-88579626D01*
X165046209Y-88947668D01*
X165189811Y-89294356D01*
X165398290Y-89606366D01*
X165663634Y-89871710D01*
X165975644Y-90080189D01*
X166276423Y-90204775D01*
X161991164Y-94490034D01*
X162013000Y-94380260D01*
X162013000Y-94087740D01*
X161955932Y-93800842D01*
X161843990Y-93530589D01*
X161681475Y-93287368D01*
X161474632Y-93080525D01*
X161300240Y-92964000D01*
X161474632Y-92847475D01*
X161681475Y-92640632D01*
X161843990Y-92397411D01*
X161955932Y-92127158D01*
X162013000Y-91840260D01*
X162013000Y-91547740D01*
X161955932Y-91260842D01*
X161843990Y-90990589D01*
X161681475Y-90747368D01*
X161474632Y-90540525D01*
X161292466Y-90418805D01*
X161409355Y-90349178D01*
X161625588Y-90154269D01*
X161799641Y-89920920D01*
X161924825Y-89658099D01*
X161969476Y-89510890D01*
X161848155Y-89281000D01*
X160655000Y-89281000D01*
X160655000Y-89301000D01*
X160401000Y-89301000D01*
X160401000Y-89281000D01*
X159207845Y-89281000D01*
X159086524Y-89510890D01*
X159131175Y-89658099D01*
X159256359Y-89920920D01*
X159430412Y-90154269D01*
X159646645Y-90349178D01*
X159763534Y-90418805D01*
X159581368Y-90540525D01*
X159374525Y-90747368D01*
X159212010Y-90990589D01*
X159100068Y-91260842D01*
X159043000Y-91547740D01*
X159043000Y-91840260D01*
X159100068Y-92127158D01*
X159212010Y-92397411D01*
X159374525Y-92640632D01*
X159581368Y-92847475D01*
X159755760Y-92964000D01*
X159581368Y-93080525D01*
X159374525Y-93287368D01*
X159212010Y-93530589D01*
X159100068Y-93800842D01*
X159043000Y-94087740D01*
X159043000Y-94380260D01*
X159100068Y-94667158D01*
X159212010Y-94937411D01*
X159374525Y-95180632D01*
X159581368Y-95387475D01*
X159824589Y-95549990D01*
X160094842Y-95661932D01*
X160381740Y-95719000D01*
X160674260Y-95719000D01*
X160784035Y-95697164D01*
X159472199Y-97009000D01*
X159410061Y-97009000D01*
X159210102Y-97048774D01*
X159021744Y-97126795D01*
X158852226Y-97240063D01*
X158708063Y-97384226D01*
X158594795Y-97553744D01*
X158516774Y-97742102D01*
X158477000Y-97942061D01*
X158477000Y-98145939D01*
X158516774Y-98345898D01*
X158594795Y-98534256D01*
X158708063Y-98703774D01*
X158852226Y-98847937D01*
X159021744Y-98961205D01*
X159210102Y-99039226D01*
X159267381Y-99050619D01*
X159278774Y-99107898D01*
X159356795Y-99296256D01*
X159470063Y-99465774D01*
X159614226Y-99609937D01*
X159783744Y-99723205D01*
X159972102Y-99801226D01*
X160029381Y-99812619D01*
X160040774Y-99869898D01*
X160118795Y-100058256D01*
X160232063Y-100227774D01*
X160376226Y-100371937D01*
X160545744Y-100485205D01*
X160734102Y-100563226D01*
X160934061Y-100603000D01*
X161017000Y-100603000D01*
X161017000Y-100685939D01*
X161056774Y-100885898D01*
X161134795Y-101074256D01*
X161248063Y-101243774D01*
X161392226Y-101387937D01*
X161561744Y-101501205D01*
X161750102Y-101579226D01*
X161950061Y-101619000D01*
X162153939Y-101619000D01*
X162353898Y-101579226D01*
X162542256Y-101501205D01*
X162711774Y-101387937D01*
X162855937Y-101243774D01*
X162969205Y-101074256D01*
X163047226Y-100885898D01*
X163087000Y-100685939D01*
X163087000Y-100623801D01*
X165980792Y-97730010D01*
X178855000Y-97730010D01*
X178855000Y-97936260D01*
X178912068Y-98223158D01*
X179024010Y-98493411D01*
X179186525Y-98736632D01*
X179393368Y-98943475D01*
X179567760Y-99060000D01*
X179393368Y-99176525D01*
X179186525Y-99383368D01*
X179024010Y-99626589D01*
X178912068Y-99896842D01*
X178855000Y-100183740D01*
X178855000Y-100476260D01*
X178898790Y-100696408D01*
X175707199Y-103888000D01*
X171204178Y-103888000D01*
X171079475Y-103701368D01*
X170947620Y-103569513D01*
X171020180Y-103547502D01*
X171130494Y-103488537D01*
X171227185Y-103409185D01*
X171306537Y-103312494D01*
X171365502Y-103202180D01*
X171401812Y-103082482D01*
X171414072Y-102958000D01*
X171414072Y-101258000D01*
X171401812Y-101133518D01*
X171365502Y-101013820D01*
X171306537Y-100903506D01*
X171227185Y-100806815D01*
X171130494Y-100727463D01*
X171020180Y-100668498D01*
X170900482Y-100632188D01*
X170776000Y-100619928D01*
X169076000Y-100619928D01*
X168951518Y-100632188D01*
X168831820Y-100668498D01*
X168721506Y-100727463D01*
X168624815Y-100806815D01*
X168545463Y-100903506D01*
X168486498Y-101013820D01*
X168450188Y-101133518D01*
X168437928Y-101258000D01*
X168437928Y-102958000D01*
X168450188Y-103082482D01*
X168486498Y-103202180D01*
X168545463Y-103312494D01*
X168624815Y-103409185D01*
X168721506Y-103488537D01*
X168831820Y-103547502D01*
X168904380Y-103569513D01*
X168772525Y-103701368D01*
X168647822Y-103888000D01*
X153222802Y-103888000D01*
X147223001Y-97888200D01*
X147223001Y-91652888D01*
X147272102Y-91673226D01*
X147472061Y-91713000D01*
X147534199Y-91713000D01*
X155958001Y-100136803D01*
X155958000Y-100605289D01*
X155914063Y-100649226D01*
X155800795Y-100818744D01*
X155722774Y-101007102D01*
X155683000Y-101207061D01*
X155683000Y-101410939D01*
X155722774Y-101610898D01*
X155800795Y-101799256D01*
X155914063Y-101968774D01*
X156058226Y-102112937D01*
X156227744Y-102226205D01*
X156416102Y-102304226D01*
X156616061Y-102344000D01*
X156819939Y-102344000D01*
X157019898Y-102304226D01*
X157208256Y-102226205D01*
X157377774Y-102112937D01*
X157521937Y-101968774D01*
X157635205Y-101799256D01*
X157713226Y-101610898D01*
X157753000Y-101410939D01*
X157753000Y-101207061D01*
X157713226Y-101007102D01*
X157635205Y-100818744D01*
X157521937Y-100649226D01*
X157478000Y-100605289D01*
X157478000Y-99859323D01*
X157481676Y-99822000D01*
X157478000Y-99784677D01*
X157478000Y-99784667D01*
X157467003Y-99673014D01*
X157423546Y-99529753D01*
X157352974Y-99397724D01*
X157258001Y-99281999D01*
X157229003Y-99258201D01*
X148609000Y-90638199D01*
X148609000Y-90576061D01*
X148569226Y-90376102D01*
X148491205Y-90187744D01*
X148377937Y-90018226D01*
X148233774Y-89874063D01*
X148064256Y-89760795D01*
X147875898Y-89682774D01*
X147675939Y-89643000D01*
X147472061Y-89643000D01*
X147272102Y-89682774D01*
X147223001Y-89703112D01*
X147223001Y-86393069D01*
X147616854Y-86393069D01*
X147616854Y-86834931D01*
X147703056Y-87268302D01*
X147872149Y-87676528D01*
X148117634Y-88043922D01*
X148430078Y-88356366D01*
X148797472Y-88601851D01*
X149205698Y-88770944D01*
X149639069Y-88857146D01*
X150080931Y-88857146D01*
X150514302Y-88770944D01*
X150922528Y-88601851D01*
X151289922Y-88356366D01*
X151602366Y-88043922D01*
X151847851Y-87676528D01*
X152016944Y-87268302D01*
X152076102Y-86970890D01*
X159086524Y-86970890D01*
X159131175Y-87118099D01*
X159256359Y-87380920D01*
X159430412Y-87614269D01*
X159646645Y-87809178D01*
X159772255Y-87884000D01*
X159646645Y-87958822D01*
X159430412Y-88153731D01*
X159256359Y-88387080D01*
X159131175Y-88649901D01*
X159086524Y-88797110D01*
X159207845Y-89027000D01*
X160401000Y-89027000D01*
X160401000Y-86741000D01*
X160655000Y-86741000D01*
X160655000Y-89027000D01*
X161848155Y-89027000D01*
X161969476Y-88797110D01*
X161924825Y-88649901D01*
X161799641Y-88387080D01*
X161625588Y-88153731D01*
X161409355Y-87958822D01*
X161283745Y-87884000D01*
X161409355Y-87809178D01*
X161625588Y-87614269D01*
X161799641Y-87380920D01*
X161924825Y-87118099D01*
X161969476Y-86970890D01*
X161848155Y-86741000D01*
X160655000Y-86741000D01*
X160401000Y-86741000D01*
X159207845Y-86741000D01*
X159086524Y-86970890D01*
X152076102Y-86970890D01*
X152103146Y-86834931D01*
X152103146Y-86393069D01*
X152016944Y-85959698D01*
X151847851Y-85551472D01*
X151602366Y-85184078D01*
X151289922Y-84871634D01*
X150922528Y-84626149D01*
X150514302Y-84457056D01*
X150080931Y-84370854D01*
X149639069Y-84370854D01*
X149205698Y-84457056D01*
X148797472Y-84626149D01*
X148430078Y-84871634D01*
X148117634Y-85184078D01*
X147872149Y-85551472D01*
X147703056Y-85959698D01*
X147616854Y-86393069D01*
X147223001Y-86393069D01*
X147223001Y-85286323D01*
X147226677Y-85249000D01*
X147223001Y-85211677D01*
X147223001Y-85211668D01*
X147212004Y-85100015D01*
X147168547Y-84956754D01*
X147097975Y-84824725D01*
X147003002Y-84709000D01*
X146974005Y-84685203D01*
X146729210Y-84440408D01*
X146773000Y-84220260D01*
X146773000Y-83927740D01*
X146729210Y-83707592D01*
X146974005Y-83462797D01*
X147003002Y-83439000D01*
X147097975Y-83323275D01*
X147168547Y-83191246D01*
X147212004Y-83047985D01*
X147223001Y-82936332D01*
X147223001Y-82936323D01*
X147226677Y-82899000D01*
X147223001Y-82861677D01*
X147223001Y-80684000D01*
X159039928Y-80684000D01*
X159039928Y-82384000D01*
X159052188Y-82508482D01*
X159088498Y-82628180D01*
X159147463Y-82738494D01*
X159226815Y-82835185D01*
X159323506Y-82914537D01*
X159433820Y-82973502D01*
X159506380Y-82995513D01*
X159374525Y-83127368D01*
X159212010Y-83370589D01*
X159100068Y-83640842D01*
X159043000Y-83927740D01*
X159043000Y-84220260D01*
X159100068Y-84507158D01*
X159212010Y-84777411D01*
X159374525Y-85020632D01*
X159581368Y-85227475D01*
X159763534Y-85349195D01*
X159646645Y-85418822D01*
X159430412Y-85613731D01*
X159256359Y-85847080D01*
X159131175Y-86109901D01*
X159086524Y-86257110D01*
X159207845Y-86487000D01*
X160401000Y-86487000D01*
X160401000Y-86467000D01*
X160655000Y-86467000D01*
X160655000Y-86487000D01*
X161848155Y-86487000D01*
X161969476Y-86257110D01*
X161924825Y-86109901D01*
X161799641Y-85847080D01*
X161625588Y-85613731D01*
X161409355Y-85418822D01*
X161292466Y-85349195D01*
X161474632Y-85227475D01*
X161681475Y-85020632D01*
X161843990Y-84777411D01*
X161955932Y-84507158D01*
X162013000Y-84220260D01*
X162013000Y-83927740D01*
X161955932Y-83640842D01*
X161843990Y-83370589D01*
X161681475Y-83127368D01*
X161549620Y-82995513D01*
X161622180Y-82973502D01*
X161732494Y-82914537D01*
X161829185Y-82835185D01*
X161908537Y-82738494D01*
X161967502Y-82628180D01*
X162003812Y-82508482D01*
X162016072Y-82384000D01*
X162016072Y-82362374D01*
X164973000Y-82362374D01*
X164973000Y-82737626D01*
X165046209Y-83105668D01*
X165189811Y-83452356D01*
X165398290Y-83764366D01*
X165663634Y-84029710D01*
X165975644Y-84238189D01*
X166322332Y-84381791D01*
X166690374Y-84455000D01*
X167065626Y-84455000D01*
X167433668Y-84381791D01*
X167780356Y-84238189D01*
X168092366Y-84029710D01*
X168357710Y-83764366D01*
X168566189Y-83452356D01*
X168709791Y-83105668D01*
X168783000Y-82737626D01*
X168783000Y-82362374D01*
X170053000Y-82362374D01*
X170053000Y-82737626D01*
X170126209Y-83105668D01*
X170269811Y-83452356D01*
X170478290Y-83764366D01*
X170743634Y-84029710D01*
X171055644Y-84238189D01*
X171402332Y-84381791D01*
X171770374Y-84455000D01*
X172145626Y-84455000D01*
X172513668Y-84381791D01*
X172860356Y-84238189D01*
X173172366Y-84029710D01*
X173437710Y-83764366D01*
X173646189Y-83452356D01*
X173789791Y-83105668D01*
X173863000Y-82737626D01*
X173863000Y-82362374D01*
X173789791Y-81994332D01*
X173646189Y-81647644D01*
X173437710Y-81335634D01*
X173172366Y-81070290D01*
X172860356Y-80861811D01*
X172513668Y-80718209D01*
X172145626Y-80645000D01*
X171770374Y-80645000D01*
X171402332Y-80718209D01*
X171055644Y-80861811D01*
X170743634Y-81070290D01*
X170478290Y-81335634D01*
X170269811Y-81647644D01*
X170126209Y-81994332D01*
X170053000Y-82362374D01*
X168783000Y-82362374D01*
X168709791Y-81994332D01*
X168566189Y-81647644D01*
X168357710Y-81335634D01*
X168092366Y-81070290D01*
X167780356Y-80861811D01*
X167433668Y-80718209D01*
X167065626Y-80645000D01*
X166690374Y-80645000D01*
X166322332Y-80718209D01*
X165975644Y-80861811D01*
X165663634Y-81070290D01*
X165398290Y-81335634D01*
X165189811Y-81647644D01*
X165046209Y-81994332D01*
X164973000Y-82362374D01*
X162016072Y-82362374D01*
X162016072Y-80684000D01*
X162003812Y-80559518D01*
X161967502Y-80439820D01*
X161908537Y-80329506D01*
X161829185Y-80232815D01*
X161732494Y-80153463D01*
X161622180Y-80094498D01*
X161502482Y-80058188D01*
X161378000Y-80045928D01*
X159678000Y-80045928D01*
X159553518Y-80058188D01*
X159433820Y-80094498D01*
X159323506Y-80153463D01*
X159226815Y-80232815D01*
X159147463Y-80329506D01*
X159088498Y-80439820D01*
X159052188Y-80559518D01*
X159039928Y-80684000D01*
X147223001Y-80684000D01*
X147223001Y-80206323D01*
X147226677Y-80169000D01*
X147223001Y-80131677D01*
X147223001Y-80131668D01*
X147212004Y-80020015D01*
X147168547Y-79876754D01*
X147097975Y-79744725D01*
X147069538Y-79710075D01*
X147104247Y-79699546D01*
X147236276Y-79628974D01*
X147352001Y-79534001D01*
X147375804Y-79504998D01*
X148071801Y-78809001D01*
X176540200Y-78809001D01*
X178252205Y-80521008D01*
G37*
X178252205Y-80521008D02*
X178275999Y-80550001D01*
X178304992Y-80573795D01*
X178304996Y-80573799D01*
X178375685Y-80631811D01*
X178391724Y-80644974D01*
X178523753Y-80715546D01*
X178667014Y-80759003D01*
X178778667Y-80770000D01*
X178778676Y-80770000D01*
X178815999Y-80773676D01*
X178853322Y-80770000D01*
X179061822Y-80770000D01*
X179186525Y-80956632D01*
X179393368Y-81163475D01*
X179575534Y-81285195D01*
X179458645Y-81354822D01*
X179242412Y-81549731D01*
X179068359Y-81783080D01*
X178943175Y-82045901D01*
X178898524Y-82193110D01*
X179019845Y-82423000D01*
X180213000Y-82423000D01*
X180213000Y-82403000D01*
X180467000Y-82403000D01*
X180467000Y-82423000D01*
X180487000Y-82423000D01*
X180487000Y-82677000D01*
X180467000Y-82677000D01*
X180467000Y-82697000D01*
X180213000Y-82697000D01*
X180213000Y-82677000D01*
X179019845Y-82677000D01*
X178898524Y-82906890D01*
X178943175Y-83054099D01*
X179068359Y-83316920D01*
X179242412Y-83550269D01*
X179458645Y-83745178D01*
X179575534Y-83814805D01*
X179393368Y-83936525D01*
X179186525Y-84143368D01*
X179024010Y-84386589D01*
X178912068Y-84656842D01*
X178855000Y-84943740D01*
X178855000Y-85236260D01*
X178912068Y-85523158D01*
X179024010Y-85793411D01*
X179186525Y-86036632D01*
X179186892Y-86036999D01*
X170796323Y-86036999D01*
X170759000Y-86033323D01*
X170721677Y-86036999D01*
X170721668Y-86036999D01*
X170610015Y-86047996D01*
X170466754Y-86091453D01*
X170334725Y-86162025D01*
X170219000Y-86256998D01*
X170195202Y-86285996D01*
X168690775Y-87790423D01*
X168566189Y-87489644D01*
X168357710Y-87177634D01*
X168092366Y-86912290D01*
X167780356Y-86703811D01*
X167433668Y-86560209D01*
X167065626Y-86487000D01*
X166690374Y-86487000D01*
X166322332Y-86560209D01*
X165975644Y-86703811D01*
X165663634Y-86912290D01*
X165398290Y-87177634D01*
X165189811Y-87489644D01*
X165046209Y-87836332D01*
X164973000Y-88204374D01*
X164973000Y-88579626D01*
X165046209Y-88947668D01*
X165189811Y-89294356D01*
X165398290Y-89606366D01*
X165663634Y-89871710D01*
X165975644Y-90080189D01*
X166276423Y-90204775D01*
X161991164Y-94490034D01*
X162013000Y-94380260D01*
X162013000Y-94087740D01*
X161955932Y-93800842D01*
X161843990Y-93530589D01*
X161681475Y-93287368D01*
X161474632Y-93080525D01*
X161300240Y-92964000D01*
X161474632Y-92847475D01*
X161681475Y-92640632D01*
X161843990Y-92397411D01*
X161955932Y-92127158D01*
X162013000Y-91840260D01*
X162013000Y-91547740D01*
X161955932Y-91260842D01*
X161843990Y-90990589D01*
X161681475Y-90747368D01*
X161474632Y-90540525D01*
X161292466Y-90418805D01*
X161409355Y-90349178D01*
X161625588Y-90154269D01*
X161799641Y-89920920D01*
X161924825Y-89658099D01*
X161969476Y-89510890D01*
X161848155Y-89281000D01*
X160655000Y-89281000D01*
X160655000Y-89301000D01*
X160401000Y-89301000D01*
X160401000Y-89281000D01*
X159207845Y-89281000D01*
X159086524Y-89510890D01*
X159131175Y-89658099D01*
X159256359Y-89920920D01*
X159430412Y-90154269D01*
X159646645Y-90349178D01*
X159763534Y-90418805D01*
X159581368Y-90540525D01*
X159374525Y-90747368D01*
X159212010Y-90990589D01*
X159100068Y-91260842D01*
X159043000Y-91547740D01*
X159043000Y-91840260D01*
X159100068Y-92127158D01*
X159212010Y-92397411D01*
X159374525Y-92640632D01*
X159581368Y-92847475D01*
X159755760Y-92964000D01*
X159581368Y-93080525D01*
X159374525Y-93287368D01*
X159212010Y-93530589D01*
X159100068Y-93800842D01*
X159043000Y-94087740D01*
X159043000Y-94380260D01*
X159100068Y-94667158D01*
X159212010Y-94937411D01*
X159374525Y-95180632D01*
X159581368Y-95387475D01*
X159824589Y-95549990D01*
X160094842Y-95661932D01*
X160381740Y-95719000D01*
X160674260Y-95719000D01*
X160784035Y-95697164D01*
X159472199Y-97009000D01*
X159410061Y-97009000D01*
X159210102Y-97048774D01*
X159021744Y-97126795D01*
X158852226Y-97240063D01*
X158708063Y-97384226D01*
X158594795Y-97553744D01*
X158516774Y-97742102D01*
X158477000Y-97942061D01*
X158477000Y-98145939D01*
X158516774Y-98345898D01*
X158594795Y-98534256D01*
X158708063Y-98703774D01*
X158852226Y-98847937D01*
X159021744Y-98961205D01*
X159210102Y-99039226D01*
X159267381Y-99050619D01*
X159278774Y-99107898D01*
X159356795Y-99296256D01*
X159470063Y-99465774D01*
X159614226Y-99609937D01*
X159783744Y-99723205D01*
X159972102Y-99801226D01*
X160029381Y-99812619D01*
X160040774Y-99869898D01*
X160118795Y-100058256D01*
X160232063Y-100227774D01*
X160376226Y-100371937D01*
X160545744Y-100485205D01*
X160734102Y-100563226D01*
X160934061Y-100603000D01*
X161017000Y-100603000D01*
X161017000Y-100685939D01*
X161056774Y-100885898D01*
X161134795Y-101074256D01*
X161248063Y-101243774D01*
X161392226Y-101387937D01*
X161561744Y-101501205D01*
X161750102Y-101579226D01*
X161950061Y-101619000D01*
X162153939Y-101619000D01*
X162353898Y-101579226D01*
X162542256Y-101501205D01*
X162711774Y-101387937D01*
X162855937Y-101243774D01*
X162969205Y-101074256D01*
X163047226Y-100885898D01*
X163087000Y-100685939D01*
X163087000Y-100623801D01*
X165980792Y-97730010D01*
X178855000Y-97730010D01*
X178855000Y-97936260D01*
X178912068Y-98223158D01*
X179024010Y-98493411D01*
X179186525Y-98736632D01*
X179393368Y-98943475D01*
X179567760Y-99060000D01*
X179393368Y-99176525D01*
X179186525Y-99383368D01*
X179024010Y-99626589D01*
X178912068Y-99896842D01*
X178855000Y-100183740D01*
X178855000Y-100476260D01*
X178898790Y-100696408D01*
X175707199Y-103888000D01*
X171204178Y-103888000D01*
X171079475Y-103701368D01*
X170947620Y-103569513D01*
X171020180Y-103547502D01*
X171130494Y-103488537D01*
X171227185Y-103409185D01*
X171306537Y-103312494D01*
X171365502Y-103202180D01*
X171401812Y-103082482D01*
X171414072Y-102958000D01*
X171414072Y-101258000D01*
X171401812Y-101133518D01*
X171365502Y-101013820D01*
X171306537Y-100903506D01*
X171227185Y-100806815D01*
X171130494Y-100727463D01*
X171020180Y-100668498D01*
X170900482Y-100632188D01*
X170776000Y-100619928D01*
X169076000Y-100619928D01*
X168951518Y-100632188D01*
X168831820Y-100668498D01*
X168721506Y-100727463D01*
X168624815Y-100806815D01*
X168545463Y-100903506D01*
X168486498Y-101013820D01*
X168450188Y-101133518D01*
X168437928Y-101258000D01*
X168437928Y-102958000D01*
X168450188Y-103082482D01*
X168486498Y-103202180D01*
X168545463Y-103312494D01*
X168624815Y-103409185D01*
X168721506Y-103488537D01*
X168831820Y-103547502D01*
X168904380Y-103569513D01*
X168772525Y-103701368D01*
X168647822Y-103888000D01*
X153222802Y-103888000D01*
X147223001Y-97888200D01*
X147223001Y-91652888D01*
X147272102Y-91673226D01*
X147472061Y-91713000D01*
X147534199Y-91713000D01*
X155958001Y-100136803D01*
X155958000Y-100605289D01*
X155914063Y-100649226D01*
X155800795Y-100818744D01*
X155722774Y-101007102D01*
X155683000Y-101207061D01*
X155683000Y-101410939D01*
X155722774Y-101610898D01*
X155800795Y-101799256D01*
X155914063Y-101968774D01*
X156058226Y-102112937D01*
X156227744Y-102226205D01*
X156416102Y-102304226D01*
X156616061Y-102344000D01*
X156819939Y-102344000D01*
X157019898Y-102304226D01*
X157208256Y-102226205D01*
X157377774Y-102112937D01*
X157521937Y-101968774D01*
X157635205Y-101799256D01*
X157713226Y-101610898D01*
X157753000Y-101410939D01*
X157753000Y-101207061D01*
X157713226Y-101007102D01*
X157635205Y-100818744D01*
X157521937Y-100649226D01*
X157478000Y-100605289D01*
X157478000Y-99859323D01*
X157481676Y-99822000D01*
X157478000Y-99784677D01*
X157478000Y-99784667D01*
X157467003Y-99673014D01*
X157423546Y-99529753D01*
X157352974Y-99397724D01*
X157258001Y-99281999D01*
X157229003Y-99258201D01*
X148609000Y-90638199D01*
X148609000Y-90576061D01*
X148569226Y-90376102D01*
X148491205Y-90187744D01*
X148377937Y-90018226D01*
X148233774Y-89874063D01*
X148064256Y-89760795D01*
X147875898Y-89682774D01*
X147675939Y-89643000D01*
X147472061Y-89643000D01*
X147272102Y-89682774D01*
X147223001Y-89703112D01*
X147223001Y-86393069D01*
X147616854Y-86393069D01*
X147616854Y-86834931D01*
X147703056Y-87268302D01*
X147872149Y-87676528D01*
X148117634Y-88043922D01*
X148430078Y-88356366D01*
X148797472Y-88601851D01*
X149205698Y-88770944D01*
X149639069Y-88857146D01*
X150080931Y-88857146D01*
X150514302Y-88770944D01*
X150922528Y-88601851D01*
X151289922Y-88356366D01*
X151602366Y-88043922D01*
X151847851Y-87676528D01*
X152016944Y-87268302D01*
X152076102Y-86970890D01*
X159086524Y-86970890D01*
X159131175Y-87118099D01*
X159256359Y-87380920D01*
X159430412Y-87614269D01*
X159646645Y-87809178D01*
X159772255Y-87884000D01*
X159646645Y-87958822D01*
X159430412Y-88153731D01*
X159256359Y-88387080D01*
X159131175Y-88649901D01*
X159086524Y-88797110D01*
X159207845Y-89027000D01*
X160401000Y-89027000D01*
X160401000Y-86741000D01*
X160655000Y-86741000D01*
X160655000Y-89027000D01*
X161848155Y-89027000D01*
X161969476Y-88797110D01*
X161924825Y-88649901D01*
X161799641Y-88387080D01*
X161625588Y-88153731D01*
X161409355Y-87958822D01*
X161283745Y-87884000D01*
X161409355Y-87809178D01*
X161625588Y-87614269D01*
X161799641Y-87380920D01*
X161924825Y-87118099D01*
X161969476Y-86970890D01*
X161848155Y-86741000D01*
X160655000Y-86741000D01*
X160401000Y-86741000D01*
X159207845Y-86741000D01*
X159086524Y-86970890D01*
X152076102Y-86970890D01*
X152103146Y-86834931D01*
X152103146Y-86393069D01*
X152016944Y-85959698D01*
X151847851Y-85551472D01*
X151602366Y-85184078D01*
X151289922Y-84871634D01*
X150922528Y-84626149D01*
X150514302Y-84457056D01*
X150080931Y-84370854D01*
X149639069Y-84370854D01*
X149205698Y-84457056D01*
X148797472Y-84626149D01*
X148430078Y-84871634D01*
X148117634Y-85184078D01*
X147872149Y-85551472D01*
X147703056Y-85959698D01*
X147616854Y-86393069D01*
X147223001Y-86393069D01*
X147223001Y-85286323D01*
X147226677Y-85249000D01*
X147223001Y-85211677D01*
X147223001Y-85211668D01*
X147212004Y-85100015D01*
X147168547Y-84956754D01*
X147097975Y-84824725D01*
X147003002Y-84709000D01*
X146974005Y-84685203D01*
X146729210Y-84440408D01*
X146773000Y-84220260D01*
X146773000Y-83927740D01*
X146729210Y-83707592D01*
X146974005Y-83462797D01*
X147003002Y-83439000D01*
X147097975Y-83323275D01*
X147168547Y-83191246D01*
X147212004Y-83047985D01*
X147223001Y-82936332D01*
X147223001Y-82936323D01*
X147226677Y-82899000D01*
X147223001Y-82861677D01*
X147223001Y-80684000D01*
X159039928Y-80684000D01*
X159039928Y-82384000D01*
X159052188Y-82508482D01*
X159088498Y-82628180D01*
X159147463Y-82738494D01*
X159226815Y-82835185D01*
X159323506Y-82914537D01*
X159433820Y-82973502D01*
X159506380Y-82995513D01*
X159374525Y-83127368D01*
X159212010Y-83370589D01*
X159100068Y-83640842D01*
X159043000Y-83927740D01*
X159043000Y-84220260D01*
X159100068Y-84507158D01*
X159212010Y-84777411D01*
X159374525Y-85020632D01*
X159581368Y-85227475D01*
X159763534Y-85349195D01*
X159646645Y-85418822D01*
X159430412Y-85613731D01*
X159256359Y-85847080D01*
X159131175Y-86109901D01*
X159086524Y-86257110D01*
X159207845Y-86487000D01*
X160401000Y-86487000D01*
X160401000Y-86467000D01*
X160655000Y-86467000D01*
X160655000Y-86487000D01*
X161848155Y-86487000D01*
X161969476Y-86257110D01*
X161924825Y-86109901D01*
X161799641Y-85847080D01*
X161625588Y-85613731D01*
X161409355Y-85418822D01*
X161292466Y-85349195D01*
X161474632Y-85227475D01*
X161681475Y-85020632D01*
X161843990Y-84777411D01*
X161955932Y-84507158D01*
X162013000Y-84220260D01*
X162013000Y-83927740D01*
X161955932Y-83640842D01*
X161843990Y-83370589D01*
X161681475Y-83127368D01*
X161549620Y-82995513D01*
X161622180Y-82973502D01*
X161732494Y-82914537D01*
X161829185Y-82835185D01*
X161908537Y-82738494D01*
X161967502Y-82628180D01*
X162003812Y-82508482D01*
X162016072Y-82384000D01*
X162016072Y-82362374D01*
X164973000Y-82362374D01*
X164973000Y-82737626D01*
X165046209Y-83105668D01*
X165189811Y-83452356D01*
X165398290Y-83764366D01*
X165663634Y-84029710D01*
X165975644Y-84238189D01*
X166322332Y-84381791D01*
X166690374Y-84455000D01*
X167065626Y-84455000D01*
X167433668Y-84381791D01*
X167780356Y-84238189D01*
X168092366Y-84029710D01*
X168357710Y-83764366D01*
X168566189Y-83452356D01*
X168709791Y-83105668D01*
X168783000Y-82737626D01*
X168783000Y-82362374D01*
X170053000Y-82362374D01*
X170053000Y-82737626D01*
X170126209Y-83105668D01*
X170269811Y-83452356D01*
X170478290Y-83764366D01*
X170743634Y-84029710D01*
X171055644Y-84238189D01*
X171402332Y-84381791D01*
X171770374Y-84455000D01*
X172145626Y-84455000D01*
X172513668Y-84381791D01*
X172860356Y-84238189D01*
X173172366Y-84029710D01*
X173437710Y-83764366D01*
X173646189Y-83452356D01*
X173789791Y-83105668D01*
X173863000Y-82737626D01*
X173863000Y-82362374D01*
X173789791Y-81994332D01*
X173646189Y-81647644D01*
X173437710Y-81335634D01*
X173172366Y-81070290D01*
X172860356Y-80861811D01*
X172513668Y-80718209D01*
X172145626Y-80645000D01*
X171770374Y-80645000D01*
X171402332Y-80718209D01*
X171055644Y-80861811D01*
X170743634Y-81070290D01*
X170478290Y-81335634D01*
X170269811Y-81647644D01*
X170126209Y-81994332D01*
X170053000Y-82362374D01*
X168783000Y-82362374D01*
X168709791Y-81994332D01*
X168566189Y-81647644D01*
X168357710Y-81335634D01*
X168092366Y-81070290D01*
X167780356Y-80861811D01*
X167433668Y-80718209D01*
X167065626Y-80645000D01*
X166690374Y-80645000D01*
X166322332Y-80718209D01*
X165975644Y-80861811D01*
X165663634Y-81070290D01*
X165398290Y-81335634D01*
X165189811Y-81647644D01*
X165046209Y-81994332D01*
X164973000Y-82362374D01*
X162016072Y-82362374D01*
X162016072Y-80684000D01*
X162003812Y-80559518D01*
X161967502Y-80439820D01*
X161908537Y-80329506D01*
X161829185Y-80232815D01*
X161732494Y-80153463D01*
X161622180Y-80094498D01*
X161502482Y-80058188D01*
X161378000Y-80045928D01*
X159678000Y-80045928D01*
X159553518Y-80058188D01*
X159433820Y-80094498D01*
X159323506Y-80153463D01*
X159226815Y-80232815D01*
X159147463Y-80329506D01*
X159088498Y-80439820D01*
X159052188Y-80559518D01*
X159039928Y-80684000D01*
X147223001Y-80684000D01*
X147223001Y-80206323D01*
X147226677Y-80169000D01*
X147223001Y-80131677D01*
X147223001Y-80131668D01*
X147212004Y-80020015D01*
X147168547Y-79876754D01*
X147097975Y-79744725D01*
X147069538Y-79710075D01*
X147104247Y-79699546D01*
X147236276Y-79628974D01*
X147352001Y-79534001D01*
X147375804Y-79504998D01*
X148071801Y-78809001D01*
X176540200Y-78809001D01*
X178252205Y-80521008D01*
G36*
X143846791Y-88787592D02*
G01*
X143803000Y-89007740D01*
X143803000Y-89300260D01*
X143860068Y-89587158D01*
X143972010Y-89857411D01*
X144134525Y-90100632D01*
X144341368Y-90307475D01*
X144515760Y-90424000D01*
X144341368Y-90540525D01*
X144134525Y-90747368D01*
X143972010Y-90990589D01*
X143860068Y-91260842D01*
X143803000Y-91547740D01*
X143803000Y-91840260D01*
X143860068Y-92127158D01*
X143972010Y-92397411D01*
X144134525Y-92640632D01*
X144341368Y-92847475D01*
X144515760Y-92964000D01*
X144341368Y-93080525D01*
X144134525Y-93287368D01*
X144048176Y-93416599D01*
X140069138Y-93416599D01*
X140067400Y-93097350D01*
X139908650Y-92938600D01*
X138709400Y-92938600D01*
X138709400Y-92958600D01*
X138455400Y-92958600D01*
X138455400Y-92938600D01*
X138435400Y-92938600D01*
X138435400Y-92684600D01*
X138455400Y-92684600D01*
X138455400Y-91485350D01*
X138709400Y-91485350D01*
X138709400Y-92684600D01*
X139908650Y-92684600D01*
X140067400Y-92525850D01*
X140070472Y-91961600D01*
X140058212Y-91837118D01*
X140021902Y-91717420D01*
X139962937Y-91607106D01*
X139883585Y-91510415D01*
X139786894Y-91431063D01*
X139676580Y-91372098D01*
X139556882Y-91335788D01*
X139432400Y-91323528D01*
X138868150Y-91326600D01*
X138709400Y-91485350D01*
X138455400Y-91485350D01*
X138296650Y-91326600D01*
X137732400Y-91323528D01*
X137607918Y-91335788D01*
X137488220Y-91372098D01*
X137377906Y-91431063D01*
X137281215Y-91510415D01*
X137201863Y-91607106D01*
X137142898Y-91717420D01*
X137106588Y-91837118D01*
X137094328Y-91961600D01*
X137096909Y-92435708D01*
X136955203Y-92294002D01*
X136931400Y-92264998D01*
X136815675Y-92170025D01*
X136683646Y-92099453D01*
X136540385Y-92055996D01*
X136428732Y-92044999D01*
X136428721Y-92044999D01*
X136391399Y-92041323D01*
X136354077Y-92044999D01*
X135968765Y-92044999D01*
X136016825Y-91944099D01*
X136061476Y-91796890D01*
X135940155Y-91567000D01*
X134747000Y-91567000D01*
X134747000Y-91587000D01*
X134493000Y-91587000D01*
X134493000Y-91567000D01*
X134473000Y-91567000D01*
X134473000Y-91313000D01*
X134493000Y-91313000D01*
X134493000Y-91293000D01*
X134747000Y-91293000D01*
X134747000Y-91313000D01*
X135940155Y-91313000D01*
X136061476Y-91083110D01*
X136016825Y-90935901D01*
X135891641Y-90673080D01*
X135717588Y-90439731D01*
X135501355Y-90244822D01*
X135384466Y-90175195D01*
X135566632Y-90053475D01*
X135706107Y-89914000D01*
X139507291Y-89914000D01*
X139551228Y-89957937D01*
X139720746Y-90071205D01*
X139909104Y-90149226D01*
X140109063Y-90189000D01*
X140312941Y-90189000D01*
X140512900Y-90149226D01*
X140701258Y-90071205D01*
X140870776Y-89957937D01*
X141014939Y-89813774D01*
X141128207Y-89644256D01*
X141206228Y-89455898D01*
X141246002Y-89255939D01*
X141246002Y-89052061D01*
X141206228Y-88852102D01*
X141128207Y-88663744D01*
X141014939Y-88494226D01*
X141005712Y-88484999D01*
X143544198Y-88484999D01*
X143846791Y-88787592D01*
G37*
X143846791Y-88787592D02*
X143803000Y-89007740D01*
X143803000Y-89300260D01*
X143860068Y-89587158D01*
X143972010Y-89857411D01*
X144134525Y-90100632D01*
X144341368Y-90307475D01*
X144515760Y-90424000D01*
X144341368Y-90540525D01*
X144134525Y-90747368D01*
X143972010Y-90990589D01*
X143860068Y-91260842D01*
X143803000Y-91547740D01*
X143803000Y-91840260D01*
X143860068Y-92127158D01*
X143972010Y-92397411D01*
X144134525Y-92640632D01*
X144341368Y-92847475D01*
X144515760Y-92964000D01*
X144341368Y-93080525D01*
X144134525Y-93287368D01*
X144048176Y-93416599D01*
X140069138Y-93416599D01*
X140067400Y-93097350D01*
X139908650Y-92938600D01*
X138709400Y-92938600D01*
X138709400Y-92958600D01*
X138455400Y-92958600D01*
X138455400Y-92938600D01*
X138435400Y-92938600D01*
X138435400Y-92684600D01*
X138455400Y-92684600D01*
X138455400Y-91485350D01*
X138709400Y-91485350D01*
X138709400Y-92684600D01*
X139908650Y-92684600D01*
X140067400Y-92525850D01*
X140070472Y-91961600D01*
X140058212Y-91837118D01*
X140021902Y-91717420D01*
X139962937Y-91607106D01*
X139883585Y-91510415D01*
X139786894Y-91431063D01*
X139676580Y-91372098D01*
X139556882Y-91335788D01*
X139432400Y-91323528D01*
X138868150Y-91326600D01*
X138709400Y-91485350D01*
X138455400Y-91485350D01*
X138296650Y-91326600D01*
X137732400Y-91323528D01*
X137607918Y-91335788D01*
X137488220Y-91372098D01*
X137377906Y-91431063D01*
X137281215Y-91510415D01*
X137201863Y-91607106D01*
X137142898Y-91717420D01*
X137106588Y-91837118D01*
X137094328Y-91961600D01*
X137096909Y-92435708D01*
X136955203Y-92294002D01*
X136931400Y-92264998D01*
X136815675Y-92170025D01*
X136683646Y-92099453D01*
X136540385Y-92055996D01*
X136428732Y-92044999D01*
X136428721Y-92044999D01*
X136391399Y-92041323D01*
X136354077Y-92044999D01*
X135968765Y-92044999D01*
X136016825Y-91944099D01*
X136061476Y-91796890D01*
X135940155Y-91567000D01*
X134747000Y-91567000D01*
X134747000Y-91587000D01*
X134493000Y-91587000D01*
X134493000Y-91567000D01*
X134473000Y-91567000D01*
X134473000Y-91313000D01*
X134493000Y-91313000D01*
X134493000Y-91293000D01*
X134747000Y-91293000D01*
X134747000Y-91313000D01*
X135940155Y-91313000D01*
X136061476Y-91083110D01*
X136016825Y-90935901D01*
X135891641Y-90673080D01*
X135717588Y-90439731D01*
X135501355Y-90244822D01*
X135384466Y-90175195D01*
X135566632Y-90053475D01*
X135706107Y-89914000D01*
X139507291Y-89914000D01*
X139551228Y-89957937D01*
X139720746Y-90071205D01*
X139909104Y-90149226D01*
X140109063Y-90189000D01*
X140312941Y-90189000D01*
X140512900Y-90149226D01*
X140701258Y-90071205D01*
X140870776Y-89957937D01*
X141014939Y-89813774D01*
X141128207Y-89644256D01*
X141206228Y-89455898D01*
X141246002Y-89255939D01*
X141246002Y-89052061D01*
X141206228Y-88852102D01*
X141128207Y-88663744D01*
X141014939Y-88494226D01*
X141005712Y-88484999D01*
X143544198Y-88484999D01*
X143846791Y-88787592D01*
%TD*%
M02*
