M48
; DRILL file {KiCad (5.1.6)-1} date 04/06/21 11:24:01
; FORMAT={-:-/ absolute / metric / decimal}
; #@! TF.CreationDate,2021-04-06T11:24:01-04:00
; #@! TF.GenerationSoftware,Kicad,Pcbnew,(5.1.6)-1
; #@! TF.FileFunction,Plated,1,2,PTH
FMAT,2
METRIC
T1C0.400
T2C0.889
T3C0.900
T4C1.000
T5C1.397
%
G90
G05
T1
X137.414Y-79.756
X138.176Y-123.698
X140.211Y-89.154
X145.237Y-101.214
X147.574Y-90.678
X149.098Y-122.428
X154.178Y-110.49
X156.718Y-101.309
X157.226Y-76.708
X157.226Y-79.502
X159.512Y-98.044
X159.766Y-122.936
X160.274Y-98.806
X161.036Y-99.568
X162.052Y-100.584
X163.322Y-112.522
X163.322Y-116.84
X166.003Y-113.896
X166.878Y-106.426
X172.466Y-107.188
X183.134Y-82.55
T2
X141.986Y-117.094
X143.688Y-117.094
X145.39Y-117.094
X147.091Y-117.094
X148.793Y-117.094
T4
X138.311Y-83.82
X138.311Y-86.36
X132.08Y-76.2
X132.08Y-78.74
X132.08Y-81.28
X132.08Y-83.82
X132.08Y-86.36
X132.08Y-88.9
X132.08Y-91.44
X132.08Y-93.98
X132.08Y-96.52
X132.08Y-99.06
X132.08Y-101.6
X132.08Y-104.14
X132.08Y-106.68
X132.08Y-109.22
X132.08Y-111.76
X132.08Y-114.3
X132.08Y-116.84
X132.08Y-119.38
X132.08Y-121.92
X132.08Y-124.46
X134.62Y-76.2
X134.62Y-78.74
X134.62Y-81.28
X134.62Y-83.82
X134.62Y-86.36
X134.62Y-88.9
X134.62Y-91.44
X134.62Y-93.98
X134.62Y-96.52
X134.62Y-99.06
X134.62Y-101.6
X134.62Y-104.14
X134.62Y-106.68
X134.62Y-109.22
X134.62Y-111.76
X134.62Y-114.3
X134.62Y-116.84
X134.62Y-119.38
X134.62Y-121.92
X134.62Y-124.46
X160.528Y-81.534
X160.528Y-84.074
X160.528Y-86.614
X160.528Y-89.154
X160.528Y-91.694
X160.528Y-94.234
X138.582Y-92.812
X138.582Y-95.352
X185.166Y-107.188
X185.166Y-109.728
X185.166Y-112.268
X185.166Y-114.808
X185.166Y-117.348
X185.166Y-119.888
X169.926Y-102.108
X169.926Y-104.648
X169.926Y-107.188
X169.926Y-109.728
X169.926Y-112.268
X169.926Y-114.808
X169.926Y-117.348
X169.926Y-119.888
X169.926Y-122.428
X169.926Y-124.968
X180.34Y-77.47
X180.34Y-80.01
X180.34Y-82.55
X180.34Y-85.09
X180.34Y-87.63
X180.34Y-90.17
X180.34Y-92.71
X180.34Y-95.25
X180.34Y-97.79
X180.34Y-100.33
X138.43Y-99.06
X138.43Y-101.6
X195.58Y-82.55
X195.58Y-85.09
X195.58Y-87.63
X195.58Y-90.17
X195.58Y-92.71
X195.58Y-95.25
X145.288Y-76.454
X145.288Y-78.994
X145.288Y-81.534
X145.288Y-84.074
X145.288Y-86.614
X145.288Y-89.154
X145.288Y-91.694
X145.288Y-94.234
X145.288Y-96.774
X145.288Y-99.314
X156.718Y-115.316
X159.258Y-115.316
T5
X202.184Y-85.598
X207.264Y-85.598
X191.262Y-117.602
X196.342Y-117.602
X166.878Y-82.55
X171.958Y-82.55
X202.184Y-98.298
X207.264Y-98.298
X202.184Y-79.248
X207.264Y-79.248
X191.198Y-109.982
X196.278Y-109.982
X166.878Y-76.454
X171.958Y-76.454
X202.184Y-91.948
X207.264Y-91.948
X166.878Y-88.392
X171.958Y-88.392
X202.628Y-117.602
X207.708Y-117.602
X202.692Y-109.982
X207.772Y-109.982
X166.878Y-94.234
X171.958Y-94.234
T3
G00X158.616Y-119.174
M15
G01X160.916Y-119.174
M16
G05
G00X158.616Y-125.424
M15
G01X160.916Y-125.424
M16
G05
G00X164.566Y-123.324
M15
G01X164.566Y-121.024
M16
G05
T0
M30
