%TF.GenerationSoftware,KiCad,Pcbnew,(5.1.6)-1*%
%TF.CreationDate,2021-04-06T11:23:56-04:00*%
%TF.ProjectId,Lithgow_DetailDesign,4c697468-676f-4775-9f44-657461696c44,2.1*%
%TF.SameCoordinates,Original*%
%TF.FileFunction,Soldermask,Top*%
%TF.FilePolarity,Negative*%
%FSLAX46Y46*%
G04 Gerber Fmt 4.6, Leading zero omitted, Abs format (unit mm)*
G04 Created by KiCad (PCBNEW (5.1.6)-1) date 2021-04-06 11:23:56*
%MOMM*%
%LPD*%
G01*
G04 APERTURE LIST*
%ADD10R,1.800000X1.800000*%
%ADD11O,1.800000X1.800000*%
%ADD12R,1.350000X4.100000*%
%ADD13R,4.100000X1.350000*%
%ADD14C,2.640000*%
%ADD15R,0.900000X1.000000*%
%ADD16O,1.293800X1.801800*%
G04 APERTURE END LIST*
%TO.C,R5*%
G36*
G01*
X143536000Y-101729000D02*
X143536000Y-101979000D01*
G75*
G02*
X143411000Y-102104000I-125000J0D01*
G01*
X143101000Y-102104000D01*
G75*
G02*
X142976000Y-101979000I0J125000D01*
G01*
X142976000Y-101729000D01*
G75*
G02*
X143101000Y-101604000I125000J0D01*
G01*
X143411000Y-101604000D01*
G75*
G02*
X143536000Y-101729000I0J-125000D01*
G01*
G37*
G36*
G01*
X144176000Y-101729000D02*
X144176000Y-101979000D01*
G75*
G02*
X144051000Y-102104000I-125000J0D01*
G01*
X143741000Y-102104000D01*
G75*
G02*
X143616000Y-101979000I0J125000D01*
G01*
X143616000Y-101729000D01*
G75*
G02*
X143741000Y-101604000I125000J0D01*
G01*
X144051000Y-101604000D01*
G75*
G02*
X144176000Y-101729000I0J-125000D01*
G01*
G37*
%TD*%
%TO.C,R4*%
G36*
G01*
X142724600Y-94258800D02*
X142974600Y-94258800D01*
G75*
G02*
X143099600Y-94383800I0J-125000D01*
G01*
X143099600Y-94693800D01*
G75*
G02*
X142974600Y-94818800I-125000J0D01*
G01*
X142724600Y-94818800D01*
G75*
G02*
X142599600Y-94693800I0J125000D01*
G01*
X142599600Y-94383800D01*
G75*
G02*
X142724600Y-94258800I125000J0D01*
G01*
G37*
G36*
G01*
X142724600Y-93618800D02*
X142974600Y-93618800D01*
G75*
G02*
X143099600Y-93743800I0J-125000D01*
G01*
X143099600Y-94053800D01*
G75*
G02*
X142974600Y-94178800I-125000J0D01*
G01*
X142724600Y-94178800D01*
G75*
G02*
X142599600Y-94053800I0J125000D01*
G01*
X142599600Y-93743800D01*
G75*
G02*
X142724600Y-93618800I125000J0D01*
G01*
G37*
%TD*%
%TO.C,R3*%
G36*
G01*
X139115200Y-88771000D02*
X139115200Y-88521000D01*
G75*
G02*
X139240200Y-88396000I125000J0D01*
G01*
X139550200Y-88396000D01*
G75*
G02*
X139675200Y-88521000I0J-125000D01*
G01*
X139675200Y-88771000D01*
G75*
G02*
X139550200Y-88896000I-125000J0D01*
G01*
X139240200Y-88896000D01*
G75*
G02*
X139115200Y-88771000I0J125000D01*
G01*
G37*
G36*
G01*
X138475200Y-88771000D02*
X138475200Y-88521000D01*
G75*
G02*
X138600200Y-88396000I125000J0D01*
G01*
X138910200Y-88396000D01*
G75*
G02*
X139035200Y-88521000I0J-125000D01*
G01*
X139035200Y-88771000D01*
G75*
G02*
X138910200Y-88896000I-125000J0D01*
G01*
X138600200Y-88896000D01*
G75*
G02*
X138475200Y-88771000I0J125000D01*
G01*
G37*
%TD*%
D10*
%TO.C,J6*%
X180340000Y-77470000D03*
D11*
X180340000Y-80010000D03*
X180340000Y-82550000D03*
X180340000Y-85090000D03*
X180340000Y-87630000D03*
X180340000Y-90170000D03*
X180340000Y-92710000D03*
X180340000Y-95250000D03*
X180340000Y-97790000D03*
X180340000Y-100330000D03*
%TD*%
%TO.C,C2*%
G36*
G01*
X137719518Y-118445500D02*
X138632482Y-118445500D01*
G75*
G02*
X138901000Y-118714018I0J-268518D01*
G01*
X138901000Y-119851982D01*
G75*
G02*
X138632482Y-120120500I-268518J0D01*
G01*
X137719518Y-120120500D01*
G75*
G02*
X137451000Y-119851982I0J268518D01*
G01*
X137451000Y-118714018D01*
G75*
G02*
X137719518Y-118445500I268518J0D01*
G01*
G37*
G36*
G01*
X137719518Y-121320500D02*
X138632482Y-121320500D01*
G75*
G02*
X138901000Y-121589018I0J-268518D01*
G01*
X138901000Y-122726982D01*
G75*
G02*
X138632482Y-122995500I-268518J0D01*
G01*
X137719518Y-122995500D01*
G75*
G02*
X137451000Y-122726982I0J268518D01*
G01*
X137451000Y-121589018D01*
G75*
G02*
X137719518Y-121320500I268518J0D01*
G01*
G37*
%TD*%
D12*
%TO.C,J1*%
X164566000Y-122174000D03*
D13*
X159766000Y-125424000D03*
X159766000Y-119174000D03*
%TD*%
%TO.C,F3*%
G36*
G01*
X175872544Y-80590500D02*
X177187456Y-80590500D01*
G75*
G02*
X177455000Y-80858044I0J-267544D01*
G01*
X177455000Y-81847956D01*
G75*
G02*
X177187456Y-82115500I-267544J0D01*
G01*
X175872544Y-82115500D01*
G75*
G02*
X175605000Y-81847956I0J267544D01*
G01*
X175605000Y-80858044D01*
G75*
G02*
X175872544Y-80590500I267544J0D01*
G01*
G37*
G36*
G01*
X175872544Y-83565500D02*
X177187456Y-83565500D01*
G75*
G02*
X177455000Y-83833044I0J-267544D01*
G01*
X177455000Y-84822956D01*
G75*
G02*
X177187456Y-85090500I-267544J0D01*
G01*
X175872544Y-85090500D01*
G75*
G02*
X175605000Y-84822956I0J267544D01*
G01*
X175605000Y-83833044D01*
G75*
G02*
X175872544Y-83565500I267544J0D01*
G01*
G37*
%TD*%
%TO.C,C1*%
G36*
G01*
X145976500Y-126075456D02*
X145976500Y-123860544D01*
G75*
G02*
X146244044Y-123593000I267544J0D01*
G01*
X147233956Y-123593000D01*
G75*
G02*
X147501500Y-123860544I0J-267544D01*
G01*
X147501500Y-126075456D01*
G75*
G02*
X147233956Y-126343000I-267544J0D01*
G01*
X146244044Y-126343000D01*
G75*
G02*
X145976500Y-126075456I0J267544D01*
G01*
G37*
G36*
G01*
X143001500Y-126075456D02*
X143001500Y-123860544D01*
G75*
G02*
X143269044Y-123593000I267544J0D01*
G01*
X144258956Y-123593000D01*
G75*
G02*
X144526500Y-123860544I0J-267544D01*
G01*
X144526500Y-126075456D01*
G75*
G02*
X144258956Y-126343000I-267544J0D01*
G01*
X143269044Y-126343000D01*
G75*
G02*
X143001500Y-126075456I0J267544D01*
G01*
G37*
%TD*%
%TO.C,C3*%
G36*
G01*
X138833456Y-117021500D02*
X137518544Y-117021500D01*
G75*
G02*
X137251000Y-116753956I0J267544D01*
G01*
X137251000Y-115764044D01*
G75*
G02*
X137518544Y-115496500I267544J0D01*
G01*
X138833456Y-115496500D01*
G75*
G02*
X139101000Y-115764044I0J-267544D01*
G01*
X139101000Y-116753956D01*
G75*
G02*
X138833456Y-117021500I-267544J0D01*
G01*
G37*
G36*
G01*
X138833456Y-114046500D02*
X137518544Y-114046500D01*
G75*
G02*
X137251000Y-113778956I0J267544D01*
G01*
X137251000Y-112789044D01*
G75*
G02*
X137518544Y-112521500I267544J0D01*
G01*
X138833456Y-112521500D01*
G75*
G02*
X139101000Y-112789044I0J-267544D01*
G01*
X139101000Y-113778956D01*
G75*
G02*
X138833456Y-114046500I-267544J0D01*
G01*
G37*
%TD*%
%TO.C,F1*%
G36*
G01*
X153311456Y-123444500D02*
X151996544Y-123444500D01*
G75*
G02*
X151729000Y-123176956I0J267544D01*
G01*
X151729000Y-122187044D01*
G75*
G02*
X151996544Y-121919500I267544J0D01*
G01*
X153311456Y-121919500D01*
G75*
G02*
X153579000Y-122187044I0J-267544D01*
G01*
X153579000Y-123176956D01*
G75*
G02*
X153311456Y-123444500I-267544J0D01*
G01*
G37*
G36*
G01*
X153311456Y-126419500D02*
X151996544Y-126419500D01*
G75*
G02*
X151729000Y-126151956I0J267544D01*
G01*
X151729000Y-125162044D01*
G75*
G02*
X151996544Y-124894500I267544J0D01*
G01*
X153311456Y-124894500D01*
G75*
G02*
X153579000Y-125162044I0J-267544D01*
G01*
X153579000Y-126151956D01*
G75*
G02*
X153311456Y-126419500I-267544J0D01*
G01*
G37*
%TD*%
%TO.C,F2*%
G36*
G01*
X152250544Y-83057500D02*
X153565456Y-83057500D01*
G75*
G02*
X153833000Y-83325044I0J-267544D01*
G01*
X153833000Y-84314956D01*
G75*
G02*
X153565456Y-84582500I-267544J0D01*
G01*
X152250544Y-84582500D01*
G75*
G02*
X151983000Y-84314956I0J267544D01*
G01*
X151983000Y-83325044D01*
G75*
G02*
X152250544Y-83057500I267544J0D01*
G01*
G37*
G36*
G01*
X152250544Y-80082500D02*
X153565456Y-80082500D01*
G75*
G02*
X153833000Y-80350044I0J-267544D01*
G01*
X153833000Y-81339956D01*
G75*
G02*
X153565456Y-81607500I-267544J0D01*
G01*
X152250544Y-81607500D01*
G75*
G02*
X151983000Y-81339956I0J267544D01*
G01*
X151983000Y-80350044D01*
G75*
G02*
X152250544Y-80082500I267544J0D01*
G01*
G37*
%TD*%
%TO.C,F4*%
G36*
G01*
X166220544Y-104320500D02*
X167535456Y-104320500D01*
G75*
G02*
X167803000Y-104588044I0J-267544D01*
G01*
X167803000Y-105577956D01*
G75*
G02*
X167535456Y-105845500I-267544J0D01*
G01*
X166220544Y-105845500D01*
G75*
G02*
X165953000Y-105577956I0J267544D01*
G01*
X165953000Y-104588044D01*
G75*
G02*
X166220544Y-104320500I267544J0D01*
G01*
G37*
G36*
G01*
X166220544Y-101345500D02*
X167535456Y-101345500D01*
G75*
G02*
X167803000Y-101613044I0J-267544D01*
G01*
X167803000Y-102602956D01*
G75*
G02*
X167535456Y-102870500I-267544J0D01*
G01*
X166220544Y-102870500D01*
G75*
G02*
X165953000Y-102602956I0J267544D01*
G01*
X165953000Y-101613044D01*
G75*
G02*
X166220544Y-101345500I267544J0D01*
G01*
G37*
%TD*%
D10*
%TO.C,J2*%
X159258000Y-115316000D03*
D11*
X156718000Y-115316000D03*
%TD*%
%TO.C,J3*%
X134620000Y-124460000D03*
X132080000Y-124460000D03*
X134620000Y-121920000D03*
X132080000Y-121920000D03*
X134620000Y-119380000D03*
X132080000Y-119380000D03*
X134620000Y-116840000D03*
X132080000Y-116840000D03*
X134620000Y-114300000D03*
X132080000Y-114300000D03*
X134620000Y-111760000D03*
X132080000Y-111760000D03*
X134620000Y-109220000D03*
X132080000Y-109220000D03*
X134620000Y-106680000D03*
X132080000Y-106680000D03*
X134620000Y-104140000D03*
X132080000Y-104140000D03*
X134620000Y-101600000D03*
X132080000Y-101600000D03*
X134620000Y-99060000D03*
X132080000Y-99060000D03*
X134620000Y-96520000D03*
X132080000Y-96520000D03*
X134620000Y-93980000D03*
X132080000Y-93980000D03*
X134620000Y-91440000D03*
X132080000Y-91440000D03*
X134620000Y-88900000D03*
X132080000Y-88900000D03*
X134620000Y-86360000D03*
X132080000Y-86360000D03*
X134620000Y-83820000D03*
X132080000Y-83820000D03*
X134620000Y-81280000D03*
X132080000Y-81280000D03*
X134620000Y-78740000D03*
X132080000Y-78740000D03*
X134620000Y-76200000D03*
D10*
X132080000Y-76200000D03*
%TD*%
D11*
%TO.C,J4*%
X145288000Y-99314000D03*
X145288000Y-96774000D03*
X145288000Y-94234000D03*
X145288000Y-91694000D03*
X145288000Y-89154000D03*
X145288000Y-86614000D03*
X145288000Y-84074000D03*
X145288000Y-81534000D03*
X145288000Y-78994000D03*
D10*
X145288000Y-76454000D03*
%TD*%
%TO.C,J5*%
X160528000Y-81534000D03*
D11*
X160528000Y-84074000D03*
X160528000Y-86614000D03*
X160528000Y-89154000D03*
X160528000Y-91694000D03*
X160528000Y-94234000D03*
%TD*%
%TO.C,J7*%
X195580000Y-95250000D03*
X195580000Y-92710000D03*
X195580000Y-90170000D03*
X195580000Y-87630000D03*
X195580000Y-85090000D03*
D10*
X195580000Y-82550000D03*
%TD*%
D11*
%TO.C,J8*%
X169926000Y-124968000D03*
X169926000Y-122428000D03*
X169926000Y-119888000D03*
X169926000Y-117348000D03*
X169926000Y-114808000D03*
X169926000Y-112268000D03*
X169926000Y-109728000D03*
X169926000Y-107188000D03*
X169926000Y-104648000D03*
D10*
X169926000Y-102108000D03*
%TD*%
%TO.C,J9*%
X185166000Y-107188000D03*
D11*
X185166000Y-109728000D03*
X185166000Y-112268000D03*
X185166000Y-114808000D03*
X185166000Y-117348000D03*
X185166000Y-119888000D03*
%TD*%
D14*
%TO.C,J10*%
X166878000Y-94234000D03*
X171958000Y-94234000D03*
%TD*%
%TO.C,J11*%
X171958000Y-88392000D03*
X166878000Y-88392000D03*
%TD*%
%TO.C,J12*%
X171958000Y-82550000D03*
X166878000Y-82550000D03*
%TD*%
%TO.C,J13*%
X166878000Y-76454000D03*
X171958000Y-76454000D03*
%TD*%
%TO.C,J14*%
X202184000Y-98298000D03*
X207264000Y-98298000D03*
%TD*%
%TO.C,J15*%
X207264000Y-91948000D03*
X202184000Y-91948000D03*
%TD*%
%TO.C,J16*%
X202184000Y-85598000D03*
X207264000Y-85598000D03*
%TD*%
%TO.C,J17*%
X207264000Y-79248000D03*
X202184000Y-79248000D03*
%TD*%
%TO.C,J18*%
X202628000Y-117602000D03*
X207708000Y-117602000D03*
%TD*%
%TO.C,J19*%
X196342000Y-117602000D03*
X191262000Y-117602000D03*
%TD*%
%TO.C,J20*%
X202692000Y-109982000D03*
X207772000Y-109982000D03*
%TD*%
%TO.C,J21*%
X196278000Y-109982000D03*
X191198000Y-109982000D03*
%TD*%
D11*
%TO.C,J22*%
X138311001Y-86360000D03*
D10*
X138311001Y-83820000D03*
%TD*%
D11*
%TO.C,J23*%
X138582400Y-95351600D03*
D10*
X138582400Y-92811600D03*
%TD*%
%TO.C,J24*%
X138430000Y-99060000D03*
D11*
X138430000Y-101600000D03*
%TD*%
D15*
%TO.C,Q1*%
X157480000Y-110490000D03*
X155580000Y-110490000D03*
X156530000Y-112490000D03*
%TD*%
%TO.C,R1*%
G36*
G01*
X140337000Y-124180000D02*
X140587000Y-124180000D01*
G75*
G02*
X140712000Y-124305000I0J-125000D01*
G01*
X140712000Y-124615000D01*
G75*
G02*
X140587000Y-124740000I-125000J0D01*
G01*
X140337000Y-124740000D01*
G75*
G02*
X140212000Y-124615000I0J125000D01*
G01*
X140212000Y-124305000D01*
G75*
G02*
X140337000Y-124180000I125000J0D01*
G01*
G37*
G36*
G01*
X140337000Y-123540000D02*
X140587000Y-123540000D01*
G75*
G02*
X140712000Y-123665000I0J-125000D01*
G01*
X140712000Y-123975000D01*
G75*
G02*
X140587000Y-124100000I-125000J0D01*
G01*
X140337000Y-124100000D01*
G75*
G02*
X140212000Y-123975000I0J125000D01*
G01*
X140212000Y-123665000D01*
G75*
G02*
X140337000Y-123540000I125000J0D01*
G01*
G37*
%TD*%
%TO.C,R2*%
G36*
G01*
X150817000Y-123754500D02*
X150817000Y-124149500D01*
G75*
G02*
X150644500Y-124322000I-172500J0D01*
G01*
X150299500Y-124322000D01*
G75*
G02*
X150127000Y-124149500I0J172500D01*
G01*
X150127000Y-123754500D01*
G75*
G02*
X150299500Y-123582000I172500J0D01*
G01*
X150644500Y-123582000D01*
G75*
G02*
X150817000Y-123754500I0J-172500D01*
G01*
G37*
G36*
G01*
X149847000Y-123754500D02*
X149847000Y-124149500D01*
G75*
G02*
X149674500Y-124322000I-172500J0D01*
G01*
X149329500Y-124322000D01*
G75*
G02*
X149157000Y-124149500I0J172500D01*
G01*
X149157000Y-123754500D01*
G75*
G02*
X149329500Y-123582000I172500J0D01*
G01*
X149674500Y-123582000D01*
G75*
G02*
X149847000Y-123754500I0J-172500D01*
G01*
G37*
%TD*%
D16*
%TO.C,U1*%
X148793200Y-117094000D03*
X147091400Y-117094000D03*
X145389600Y-117094000D03*
X143687800Y-117094000D03*
X141986000Y-117094000D03*
%TD*%
M02*
